# File produced by Open Asset Import Library (http://www.assimp.sf.net)
# (assimp v3.1.187496374)

mtllib 05_platform.obj.mtl

# 12 vertex positions
v  0 0 0
v  -0.453991 0 -0.891007
v  0.707107 0 -0.707107
v  0.891006 0 0.45399
v  -0.987688 0 0.156435
v  -0.156435 0 0.987688
v  -0.453991 1 -0.891007
v  0.707107 1 -0.707107
v  0.891006 1 0.45399
v  -0.987688 1 0.156435
v  -0.156435 1 0.987688
v  0 1 0

# 0 UV coordinates

# 12 vertex normals
vn 0 -1 -0
vn 0.520803 0 -0.853677
vn -0.231514 0 -0.972832
vn 0.853677 0 -0.520803
vn 0.972831 0 0.231513
vn 0.759115 0 0.650957
vn -0.650958 0 -0.759114
vn -0.99676 0 -0.0804398
vn -0.923118 0 0.384518
vn -0.384518 0 0.923118
vn 0.0804398 0 0.99676
vn 0 1 0

# Mesh 'Cylinder01' with 20 faces
g Cylinder01
usemtl $Material_0
f  1//1 2//1 3//1
f  1//1 3//1 4//1
f  1//1 5//1 2//1
f  1//1 6//1 5//1
f  1//1 4//1 6//1
f  3//2 7//3 8//4
f  4//5 8//4 9//6
f  4//5 3//2 8//4
f  3//2 2//7 7//3
f  2//7 10//8 7//3
f  2//7 5//9 10//8
f  5//9 11//10 10//8
f  5//9 6//11 11//10
f  6//11 9//6 11//10
f  6//11 4//5 9//6
f  12//12 8//12 7//12
f  12//12 7//12 10//12
f  12//12 10//12 11//12
f  12//12 11//12 9//12
f  12//12 9//12 8//12

