# File produced by Open Asset Import Library (http://www.assimp.sf.net)
# (assimp v3.1.187496374)

mtllib 09_platform.obj.mtl

# 20 vertex positions
v  0 0 0
v  0.0871552 0 -0.996195
v  0.707107 0 -0.707107
v  0.996195 0 -0.0871566
v  -0.573577 0 -0.819152
v  -0.965926 0 -0.258819
v  -0.906308 0 0.422619
v  -0.422619 0 0.906308
v  0.25882 0 0.965927
v  0.819152 0 0.573577
v  0.0871552 1 -0.996195
v  0.707107 1 -0.707107
v  0.996195 1 -0.0871566
v  -0.573577 1 -0.819152
v  -0.965926 1 -0.258819
v  -0.906308 1 0.422619
v  -0.422619 1 0.906308
v  0.25882 1 0.965927
v  0.819152 1 0.573577
v  0 1 0

# 0 UV coordinates

# 20 vertex normals
vn 0 -1 -0
vn 0.616796 0 -0.787124
vn 0.206504 0 -0.978447
vn 0.787124 0 -0.616796
vn 0.978447 0 -0.206504
vn 0.999441 0 0.0334603
vn -0.0334603 0 -0.999441
vn -0.470742 0 -0.882272
vn -0.66806 0 -0.744108
vn -0.927722 0 -0.373271
vn -0.990067 0 -0.140598
vn -0.950611 0 0.310386
vn -0.84881 0 0.528698
vn -0.528697 0 0.848811
vn -0.310386 0 0.950611
vn 0.140599 0 0.990067
vn 0.373271 0 0.927722
vn 0.744108 0 0.66806
vn 0.882272 0 0.470742
vn 0 1 0

# Mesh 'Cylinder01' with 36 faces
g Cylinder01
usemtl $Material_0
f  1//1 2//1 3//1
f  1//1 3//1 4//1
f  1//1 5//1 2//1
f  1//1 6//1 5//1
f  1//1 7//1 6//1
f  1//1 8//1 7//1
f  1//1 9//1 8//1
f  1//1 10//1 9//1
f  1//1 4//1 10//1
f  3//2 11//3 12//4
f  4//5 12//4 13//6
f  4//5 3//2 12//4
f  3//2 2//7 11//3
f  2//7 14//8 11//3
f  2//7 5//9 14//8
f  5//9 15//10 14//8
f  5//9 6//11 15//10
f  6//11 16//12 15//10
f  6//11 7//13 16//12
f  7//13 17//14 16//12
f  7//13 8//15 17//14
f  8//15 18//16 17//14
f  8//15 9//17 18//16
f  9//17 19//18 18//16
f  9//17 10//19 19//18
f  10//19 13//6 19//18
f  10//19 4//5 13//6
f  20//20 12//20 11//20
f  20//20 11//20 14//20
f  20//20 13//20 12//20
f  20//20 19//20 13//20
f  20//20 18//20 19//20
f  20//20 17//20 18//20
f  20//20 16//20 17//20
f  20//20 15//20 16//20
f  20//20 14//20 15//20

