# File produced by Open Asset Import Library (http://www.assimp.sf.net)
# (assimp v3.1.187496374)

mtllib 10_platform.obj.mtl

# 22 vertex positions
v  0 0 0
v  0.156435 0 -0.987688
v  0.707107 0 -0.707107
v  0.987688 0 -0.156435
v  -0.453991 0 -0.891007
v  -0.891006 0 -0.45399
v  -0.987688 0 0.156435
v  -0.707107 0 0.707107
v  -0.156435 0 0.987688
v  0.453991 0 0.891007
v  0.891006 0 0.45399
v  0.156435 1 -0.987688
v  0.707107 1 -0.707107
v  0.987688 1 -0.156435
v  -0.453991 1 -0.891007
v  -0.891006 1 -0.45399
v  -0.987688 1 0.156435
v  -0.707107 1 0.707107
v  -0.156435 1 0.987688
v  0.453991 1 0.891007
v  0.891006 1 0.45399
v  0 1 0

# 0 UV coordinates

# 22 vertex normals
vn 0 -1 -0
vn 0.626857 0 -0.779135
vn 0.261876 0 -0.965101
vn 0.779135 0 -0.626857
vn 0.965101 0 -0.261876
vn 0.998791 0 -0.0491744
vn 0.0491737 0 -0.99879
vn -0.35541 0 -0.934711
vn -0.547292 0 -0.836942
vn -0.836942 0 -0.547292
vn -0.934711 0 -0.35541
vn -0.99879 0 0.0491737
vn -0.965101 0 0.261876
vn -0.779135 0 0.626857
vn -0.626857 0 0.779135
vn -0.261876 0 0.965102
vn -0.0491737 0 0.99879
vn 0.35541 0 0.934711
vn 0.547292 0 0.836942
vn 0.836942 0 0.547292
vn 0.934711 0 0.35541
vn 0 1 0

# Mesh 'Cylinder01' with 40 faces
g Cylinder01
usemtl $Material_0
f  1//1 2//1 3//1
f  1//1 3//1 4//1
f  1//1 5//1 2//1
f  1//1 6//1 5//1
f  1//1 7//1 6//1
f  1//1 8//1 7//1
f  1//1 9//1 8//1
f  1//1 10//1 9//1
f  1//1 11//1 10//1
f  1//1 4//1 11//1
f  3//2 12//3 13//4
f  4//5 13//4 14//6
f  4//5 3//2 13//4
f  3//2 2//7 12//3
f  2//7 15//8 12//3
f  2//7 5//9 15//8
f  5//9 16//10 15//8
f  5//9 6//11 16//10
f  6//11 17//12 16//10
f  6//11 7//13 17//12
f  7//13 18//14 17//12
f  7//13 8//15 18//14
f  8//15 19//16 18//14
f  8//15 9//17 19//16
f  9//17 20//18 19//16
f  9//17 10//19 20//18
f  10//19 21//20 20//18
f  10//19 11//21 21//20
f  11//21 14//6 21//20
f  11//21 4//5 14//6
f  22//22 13//22 12//22
f  22//22 12//22 15//22
f  22//22 14//22 13//22
f  22//22 21//22 14//22
f  22//22 20//22 21//22
f  22//22 19//22 20//22
f  22//22 18//22 19//22
f  22//22 17//22 18//22
f  22//22 16//22 17//22
f  22//22 15//22 16//22

