# File produced by Open Asset Import Library (http://www.assimp.sf.net)
# (assimp v3.1.187496374)

mtllib bao-ding_low.obj.mtl

# 26 vertex positions
v  -13.8321 -46.2348 2e-06
v  -9.7808 -46.2348 -9.78081
v  7e-06 -46.2348 2e-06
v  8e-06 -46.2348 -13.8321
v  9.78082 -46.2348 -9.78081
v  13.8322 -46.2348 3e-06
v  9.78081 -46.2348 9.78082
v  7e-06 -46.2348 13.8322
v  -9.7808 -46.2348 9.78082
v  -13.8322 24.3829 0
v  -9.78081 24.3829 -9.78081
v  -21.3275 67.8133 -2e-06
v  -15.0808 67.8133 -15.0808
v  -1e-06 24.3829 -13.8322
v  -4e-06 67.8133 -21.3275
v  9.78081 24.3829 -9.78081
v  15.0808 67.8133 -15.0808
v  13.8322 24.3829 1e-06
v  21.3275 67.8133 0
v  9.78081 24.3829 9.78081
v  15.0808 67.8133 15.0808
v  -2e-06 24.3829 13.8322
v  -5e-06 67.8133 21.3275
v  -9.78081 24.3829 9.78081
v  -15.0808 67.8133 15.0808
v  -5e-06 67.8133 -2e-06

# 0 UV coordinates

# 36 vertex normals
vn 0 -1 0
vn -0.918747 -0.105264 -0.380557
vn -0.922599 -0.052632 -0.382153
vn -0.92388 0 -0.382684
vn -0.912355 -0.157457 -0.37791
vn -0.380557 -0.105264 -0.918747
vn -0.382153 -0.052632 -0.922599
vn -0.382683 0 -0.92388
vn -0.37791 -0.157457 -0.912355
vn 0.380557 -0.105264 -0.918747
vn 0.382153 -0.052632 -0.922599
vn 0.382684 0 -0.92388
vn 0.382683 0 -0.92388
vn 0.37791 -0.157457 -0.912355
vn 0.918747 -0.105263 -0.380557
vn 0.922599 -0.052632 -0.382153
vn 0.92388 0 -0.382683
vn 0.912355 -0.157457 -0.37791
vn 0.918747 -0.105263 0.380558
vn 0.922599 -0.052632 0.382153
vn 0.92388 0 0.382684
vn 0.92388 0 0.382683
vn 0.912355 -0.157457 0.37791
vn 0.380557 -0.105264 0.918747
vn 0.382153 -0.052632 0.922599
vn 0.382683 0 0.92388
vn 0.37791 -0.157457 0.912355
vn -0.380557 -0.105264 0.918747
vn -0.382153 -0.052632 0.922599
vn -0.382683 0 0.92388
vn -0.37791 -0.157457 0.912355
vn -0.918747 -0.105264 0.380557
vn -0.922599 -0.052632 0.382153
vn -0.92388 0 0.382683
vn -0.912355 -0.157457 0.37791
vn 0 1 0

# Mesh 'Cylinder00' with 48 faces
g Cylinder00
usemtl $Material_0
f  1//1 2//1 3//1
f  2//1 4//1 3//1
f  4//1 5//1 3//1
f  5//1 6//1 3//1
f  6//1 7//1 3//1
f  7//1 8//1 3//1
f  8//1 9//1 3//1
f  9//1 1//1 3//1
f  10//2 11//3 1//4
f  11//3 2//4 1//4
f  12//5 13//5 10//2
f  13//5 11//3 10//2
f  11//6 14//7 2//8
f  14//7 4//8 2//8
f  13//9 15//9 11//6
f  15//9 14//7 11//6
f  14//10 16//11 4//12
f  16//11 5//13 4//12
f  15//14 17//14 14//10
f  17//14 16//11 14//10
f  16//15 18//16 5//17
f  18//16 6//17 5//17
f  17//18 19//18 16//15
f  19//18 18//16 16//15
f  18//19 20//20 6//21
f  20//20 7//22 6//21
f  19//23 21//23 18//19
f  21//23 20//20 18//19
f  20//24 22//25 7//26
f  22//25 8//26 7//26
f  21//27 23//27 20//24
f  23//27 22//25 20//24
f  22//28 24//29 8//30
f  24//29 9//30 8//30
f  23//31 25//31 22//28
f  25//31 24//29 22//28
f  24//32 10//33 9//34
f  10//33 1//34 9//34
f  25//35 12//35 24//32
f  12//35 10//33 24//32
f  13//36 12//36 26//36
f  15//36 13//36 26//36
f  17//36 15//36 26//36
f  19//36 17//36 26//36
f  21//36 19//36 26//36
f  23//36 21//36 26//36
f  25//36 23//36 26//36
f  12//36 25//36 26//36

