# File produced by Open Asset Import Library (http://www.assimp.sf.net)
# (assimp v3.1.187496374)

mtllib box.obj.mtl

# 98 vertex positions
v  0.5 0.25 0.25
v  0.5 0.5 0.25
v  0.5 0.5 0.5
v  0.5 0.25 0.5
v  0.5 -6.28643e-08 0.25
v  0.5 0.25 2.65427e-08
v  0.5 0 0
v  0.5 0.5 5.30854e-08
v  0.5 0.25 -0.25
v  0.5 6.28643e-08 -0.25
v  0.5 -0.25 -2.65427e-08
v  0.5 -0.25 -0.25
v  0.5 1.25729e-07 -0.5
v  0.5 -0.25 -0.5
v  0.5 0.5 -0.25
v  0.5 0.25 -0.5
v  0.500001 0.5 -0.5
v  0.5 -0.5 -0.5
v  0.5 -0.5 -0.25
v  0.5 -0.5 -5.30854e-08
v  0.5 -0.25 0.25
v  0.5 -0.5 0.25
v  0.5 -1.25729e-07 0.5
v  0.5 -0.25 0.5
v  0.499999 -0.5 0.5
v  -0.500001 0.25 0.250001
v  -0.500001 0.25 0.500001
v  -0.500001 0.5 0.500001
v  -0.5 0.5 0.250001
v  -0.500001 2.05357e-07 0.250001
v  -0.5 0.25 9.42964e-07
v  -0.5 2.68221e-07 9.16421e-07
v  -0.500001 1.42492e-07 0.500001
v  -0.500001 -0.25 0.250001
v  -0.5 -0.25 8.89879e-07
v  -0.5 3.31085e-07 -0.249999
v  -0.5 -0.25 -0.249999
v  -0.5 -0.5 8.63336e-07
v  -0.5 -0.5 -0.249999
v  -0.500001 -0.25 0.500001
v  -0.500001 -0.5 0.250001
v  -0.500001 -0.5 0.500001
v  -0.5 -0.5 -0.499999
v  -0.5 -0.25 -0.499999
v  -0.5 3.93949e-07 -0.499999
v  -0.5 0.25 -0.249999
v  -0.5 0.25 -0.499999
v  -0.5 0.5 9.69507e-07
v  -0.5 0.5 -0.249999
v  -0.5 0.5 -0.499999
v  0.249999 0.25 0.500001
v  0.25 0.5 0.500001
v  0.249999 -5.86733e-08 0.500001
v  -5.96046e-07 0.25 0.500001
v  -6.55651e-07 8.3819e-09 0.500001
v  0.249999 -0.25 0.500001
v  -6.55651e-07 -0.25 0.500001
v  -0.250001 7.54371e-08 0.500001
v  -0.250001 -0.25 0.500001
v  -7.15256e-07 -0.5 0.500001
v  -0.250001 -0.5 0.500001
v  0.249999 -0.5 0.5
v  -0.250001 0.25 0.500001
v  -5.96046e-07 0.5 0.500001
v  -0.250001 0.5 0.500001
v  0.25 -0.5 0.25
v  0.25 -0.5 1.7602e-07
v  -4.76837e-07 -0.5 0.250001
v  -2.38419e-07 -0.5 4.05125e-07
v  0.25 -0.5 -0.25
v  0 -0.5 -0.25
v  -0.25 -0.5 6.34231e-07
v  -0.25 -0.5 -0.25
v  2.08616e-07 -0.5 -0.5
v  -0.25 -0.5 -0.5
v  0.25 -0.5 -0.5
v  -0.250001 -0.5 0.250001
v  0.25 -0.25 -0.5
v  0.25 1.92784e-07 -0.5
v  2.38419e-07 -0.25 -0.5
v  2.68221e-07 2.59839e-07 -0.5
v  0.25 0.25 -0.5
v  2.98023e-07 0.25 -0.5
v  -0.25 3.26894e-07 -0.5
v  -0.25 0.25 -0.5
v  3.27826e-07 0.5 -0.5
v  -0.25 0.5 -0.5
v  0.25 0.5 -0.5
v  -0.25 -0.25 -0.5
v  0.25 0.5 -0.25
v  0.25 0.5 2.82191e-07
v  1.19209e-07 0.5 -0.25
v  -1.19209e-07 0.5 5.11296e-07
v  0.25 0.5 0.25
v  -3.57628e-07 0.5 0.250001
v  -0.25 0.5 7.40401e-07
v  -0.25 0.5 0.250001
v  -0.25 0.5 -0.249999

# 0 UV coordinates

# 6 vertex normals
vn 1 -2.68221e-07 -9.16421e-07
vn -1 2.68221e-07 9.16421e-07
vn -9.16421e-07 -2.51457e-07 1
vn -1.19209e-07 -1 -1.06171e-07
vn 9.16421e-07 2.51457e-07 -1
vn 1.19209e-07 1 1.06171e-07

# Mesh 'Box01' with 192 faces
g Box01
usemtl $Material_0
f  1//1 2//1 3//1
f  3//1 4//1 1//1
f  5//1 1//1 4//1
f  2//1 1//1 6//1
f  7//1 6//1 1//1
f  1//1 5//1 7//1
f  6//1 8//1 2//1
f  8//1 6//1 9//1
f  10//1 9//1 6//1
f  6//1 7//1 10//1
f  11//1 7//1 5//1
f  12//1 10//1 7//1
f  7//1 11//1 12//1
f  9//1 10//1 13//1
f  14//1 13//1 10//1
f  10//1 12//1 14//1
f  9//1 15//1 8//1
f  15//1 9//1 16//1
f  13//1 16//1 9//1
f  16//1 17//1 15//1
f  18//1 14//1 12//1
f  19//1 12//1 11//1
f  12//1 19//1 18//1
f  11//1 20//1 19//1
f  20//1 11//1 21//1
f  21//1 22//1 20//1
f  21//1 5//1 23//1
f  23//1 24//1 21//1
f  22//1 21//1 24//1
f  5//1 21//1 11//1
f  24//1 25//1 22//1
f  4//1 23//1 5//1
f  26//2 27//2 28//2
f  28//2 29//2 26//2
f  27//2 26//2 30//2
f  31//2 26//2 29//2
f  32//2 30//2 26//2
f  26//2 31//2 32//2
f  30//2 33//2 27//2
f  33//2 30//2 34//2
f  35//2 34//2 30//2
f  30//2 32//2 35//2
f  36//2 32//2 31//2
f  37//2 35//2 32//2
f  32//2 36//2 37//2
f  34//2 35//2 38//2
f  39//2 38//2 35//2
f  35//2 37//2 39//2
f  34//2 40//2 33//2
f  40//2 34//2 41//2
f  38//2 41//2 34//2
f  41//2 42//2 40//2
f  43//2 39//2 37//2
f  44//2 37//2 36//2
f  37//2 44//2 43//2
f  36//2 45//2 44//2
f  45//2 36//2 46//2
f  46//2 47//2 45//2
f  46//2 31//2 48//2
f  48//2 49//2 46//2
f  31//2 46//2 36//2
f  47//2 46//2 49//2
f  49//2 50//2 47//2
f  29//2 48//2 31//2
f  51//3 4//3 3//3
f  3//3 52//3 51//3
f  4//3 51//3 53//3
f  54//3 51//3 52//3
f  55//3 53//3 51//3
f  51//3 54//3 55//3
f  53//3 23//3 4//3
f  23//3 53//3 56//3
f  57//3 56//3 53//3
f  53//3 55//3 57//3
f  58//3 55//3 54//3
f  59//3 57//3 55//3
f  55//3 58//3 59//3
f  56//3 57//3 60//3
f  61//3 60//3 57//3
f  57//3 59//3 61//3
f  56//3 24//3 23//3
f  24//3 56//3 62//3
f  60//3 62//3 56//3
f  62//3 25//3 24//3
f  42//3 61//3 59//3
f  40//3 59//3 58//3
f  59//3 40//3 42//3
f  58//3 33//3 40//3
f  33//3 58//3 63//3
f  63//3 27//3 33//3
f  63//3 54//3 64//3
f  64//3 65//3 63//3
f  54//3 63//3 58//3
f  27//3 63//3 65//3
f  65//3 28//3 27//3
f  52//3 64//3 54//3
f  66//4 22//4 25//4
f  25//4 62//4 66//4
f  22//4 66//4 67//4
f  68//4 66//4 62//4
f  69//4 67//4 66//4
f  66//4 68//4 69//4
f  67//4 20//4 22//4
f  20//4 67//4 70//4
f  71//4 70//4 67//4
f  67//4 69//4 71//4
f  72//4 69//4 68//4
f  73//4 71//4 69//4
f  69//4 72//4 73//4
f  70//4 71//4 74//4
f  75//4 74//4 71//4
f  71//4 73//4 75//4
f  70//4 19//4 20//4
f  19//4 70//4 76//4
f  74//4 76//4 70//4
f  76//4 18//4 19//4
f  43//4 75//4 73//4
f  39//4 73//4 72//4
f  73//4 39//4 43//4
f  72//4 38//4 39//4
f  38//4 72//4 77//4
f  77//4 41//4 38//4
f  77//4 68//4 60//4
f  60//4 61//4 77//4
f  68//4 77//4 72//4
f  41//4 77//4 61//4
f  61//4 42//4 41//4
f  62//4 60//4 68//4
f  78//5 14//5 18//5
f  18//5 76//5 78//5
f  14//5 78//5 79//5
f  80//5 78//5 76//5
f  81//5 79//5 78//5
f  78//5 80//5 81//5
f  79//5 13//5 14//5
f  13//5 79//5 82//5
f  83//5 82//5 79//5
f  79//5 81//5 83//5
f  84//5 81//5 80//5
f  85//5 83//5 81//5
f  81//5 84//5 85//5
f  82//5 83//5 86//5
f  87//5 86//5 83//5
f  83//5 85//5 87//5
f  82//5 16//5 13//5
f  16//5 82//5 88//5
f  86//5 88//5 82//5
f  88//5 17//5 16//5
f  50//5 87//5 85//5
f  47//5 85//5 84//5
f  85//5 47//5 50//5
f  84//5 45//5 47//5
f  45//5 84//5 89//5
f  89//5 44//5 45//5
f  89//5 80//5 74//5
f  74//5 75//5 89//5
f  80//5 89//5 84//5
f  44//5 89//5 75//5
f  75//5 43//5 44//5
f  76//5 74//5 80//5
f  90//6 15//6 17//6
f  17//6 88//6 90//6
f  15//6 90//6 91//6
f  92//6 90//6 88//6
f  93//6 91//6 90//6
f  90//6 92//6 93//6
f  91//6 8//6 15//6
f  8//6 91//6 94//6
f  95//6 94//6 91//6
f  91//6 93//6 95//6
f  96//6 93//6 92//6
f  97//6 95//6 93//6
f  93//6 96//6 97//6
f  94//6 95//6 64//6
f  65//6 64//6 95//6
f  95//6 97//6 65//6
f  94//6 2//6 8//6
f  2//6 94//6 52//6
f  64//6 52//6 94//6
f  52//6 3//6 2//6
f  28//6 65//6 97//6
f  29//6 97//6 96//6
f  97//6 29//6 28//6
f  96//6 48//6 29//6
f  48//6 96//6 98//6
f  98//6 49//6 48//6
f  98//6 92//6 86//6
f  86//6 87//6 98//6
f  92//6 98//6 96//6
f  49//6 98//6 87//6
f  87//6 50//6 49//6
f  88//6 86//6 92//6

