# File produced by Open Asset Import Library (http://www.assimp.sf.net)
# (assimp v3.1.187496374)

mtllib cylinder.obj.mtl

# 146 vertex positions
v  0 -1 0.5
v  0.258819 -0.965926 0.5
v  0 0 0.5
v  0.5 -0.866025 0.5
v  0.707107 -0.707107 0.5
v  0.866025 -0.5 0.5
v  0.965926 -0.258819 0.5
v  1 0 0.5
v  0.965926 0.258819 0.5
v  0.866025 0.5 0.5
v  0.707107 0.707107 0.5
v  0.5 0.866025 0.5
v  0.258819 0.965926 0.5
v  0 1 0.5
v  -0.258819 0.965926 0.5
v  -0.5 0.866025 0.5
v  -0.707107 0.707107 0.5
v  -0.866025 0.5 0.5
v  -0.965926 0.258819 0.5
v  -1 0 0.5
v  -0.965926 -0.258819 0.5
v  -0.866025 -0.5 0.5
v  -0.707107 -0.707107 0.5
v  -0.5 -0.866026 0.5
v  -0.258819 -0.965926 0.5
v  0 -1 0.3
v  0.258819 -0.965926 0.3
v  0.5 -0.866025 0.3
v  0.258819 -0.965926 0.1
v  0.5 -0.866025 0.1
v  0.707107 -0.707107 0.3
v  0.707107 -0.707107 0.1
v  0.5 -0.866025 -0.1
v  0.707107 -0.707107 -0.1
v  0.866025 -0.5 0.1
v  0.866025 -0.5 -0.1
v  0.866025 -0.5 0.3
v  0.965926 -0.258819 0.1
v  0.965926 -0.258819 -0.1
v  0.866025 -0.5 -0.3
v  0.965926 -0.258819 -0.3
v  1 0 -0.1
v  1 0 -0.3
v  0.965926 -0.258819 0.3
v  1 0 0.1
v  0.965926 0.258819 -0.1
v  0.965926 0.258819 -0.3
v  1 0 -0.5
v  0.965926 0.258819 -0.5
v  0.866025 0.5 -0.3
v  0.866025 0.5 -0.5
v  0.965926 0.258819 0.1
v  0.866025 0.5 -0.1
v  0.707107 0.707107 -0.3
v  0.707107 0.707107 -0.5
v  0.866025 0.5 0.1
v  0.707107 0.707107 -0.1
v  1 0 0.3
v  0.965926 0.258819 0.3
v  0.866025 0.5 0.3
v  0.707107 0.707107 0.1
v  0.5 0.866025 -0.1
v  0.5 0.866025 -0.3
v  0.707107 0.707107 0.3
v  0.5 0.866025 0.1
v  0.5 0.866025 0.3
v  0.258819 0.965926 0.1
v  0.258819 0.965926 -0.1
v  0.258819 0.965926 0.3
v  0 1 0.1
v  0 1 -0.1
v  0.258819 0.965926 -0.3
v  0 1 -0.3
v  -0.258819 0.965926 -0.1
v  -0.258819 0.965926 -0.3
v  0 1 -0.5
v  -0.258819 0.965926 -0.5
v  -0.5 0.866025 -0.3
v  -0.5 0.866025 -0.5
v  -0.258819 0.965926 0.1
v  -0.5 0.866025 -0.1
v  -0.707107 0.707107 -0.3
v  -0.707107 0.707107 -0.5
v  -0.5 0.866025 0.1
v  -0.707107 0.707107 -0.1
v  0 1 0.3
v  -0.258819 0.965926 0.3
v  -0.5 0.866025 0.3
v  -0.707107 0.707107 0.1
v  -0.866025 0.5 -0.1
v  -0.866025 0.5 -0.3
v  -0.707107 0.707107 0.3
v  -0.866025 0.5 0.1
v  -0.866025 0.5 0.3
v  -0.965926 0.258819 0.1
v  -0.965926 0.258819 -0.1
v  -0.965926 0.258819 0.3
v  -1 0 0.1
v  -1 0 -0.1
v  -0.965926 0.258819 -0.3
v  -1 0 -0.3
v  -0.965926 -0.258819 -0.1
v  -0.965926 -0.258819 -0.3
v  -1 0 -0.5
v  -0.965926 -0.258819 -0.5
v  -0.866025 -0.5 -0.3
v  -0.866025 -0.5 -0.5
v  -0.965926 -0.258819 0.1
v  -0.866025 -0.5 -0.1
v  -0.707107 -0.707107 -0.3
v  -0.707107 -0.707107 -0.5
v  -0.866025 -0.5 0.1
v  -0.707107 -0.707107 -0.1
v  -1 0 0.3
v  -0.965926 -0.258819 0.3
v  -0.866025 -0.5 0.3
v  -0.707107 -0.707107 0.1
v  -0.5 -0.866026 -0.1
v  -0.5 -0.866026 -0.3
v  -0.707107 -0.707107 0.3
v  -0.5 -0.866026 0.1
v  -0.5 -0.866026 0.3
v  -0.258819 -0.965926 0.1
v  -0.258819 -0.965926 -0.1
v  -0.258819 -0.965926 0.3
v  0 -1 0.1
v  0 -1 -0.1
v  -0.258819 -0.965926 -0.3
v  0 -1 -0.3
v  0.258819 -0.965926 -0.1
v  0.258819 -0.965926 -0.3
v  0 -1 -0.5
v  0.258819 -0.965926 -0.5
v  0.5 -0.866025 -0.3
v  0.5 -0.866025 -0.5
v  0.707107 -0.707107 -0.3
v  0.707107 -0.707107 -0.5
v  0.866025 -0.5 -0.5
v  0.965926 -0.258819 -0.5
v  -0.258819 -0.965926 -0.5
v  -0.5 -0.866026 -0.5
v  -0.965926 0.258819 -0.5
v  -0.866025 0.5 -0.5
v  0.258819 0.965926 -0.5
v  0.5 0.866025 -0.5
v  0 0 -0.5

# 0 UV coordinates

# 74 vertex normals
vn 0 0 1
vn 0 -1 0
vn 0.258819 -0.965926 0
vn 0.043842 -0.999038 0
vn 0.300918 -0.95365 0
vn -0.216222 -0.976344 0
vn 0.5 -0.866025 0
vn 0.537487 -0.843272 0
vn 0.707107 -0.707107 0
vn 0.866025 -0.5 0
vn 0.737428 -0.675426 0
vn 0.965926 -0.258819 0
vn 1 0 0
vn 0.965926 0.258819 0
vn 0.999038 -0.043842 0
vn 0.976344 0.216222 0
vn 0.866025 0.5 0
vn 0.887114 0.461551 0
vn 0.707107 0.707107 0
vn 0.737428 0.675426 0
vn 0.5 0.866025 0
vn 0.95365 0.300918 0
vn 0.843272 0.537488 0
vn 0.675426 0.737428 0
vn 0.258819 0.965926 0
vn 0.461551 0.887114 0
vn -0 1 -0
vn -0.258819 0.965926 -0
vn 0.043842 0.999038 0
vn -0.216222 0.976344 -0
vn -0.5 0.866025 -0
vn -0.461551 0.887114 -0
vn -0.707107 0.707107 0
vn -0.675426 0.737428 -0
vn -0.866025 0.5 -0
vn -0.300918 0.95365 -0
vn -0.537488 0.843272 -0
vn -0.737428 0.675426 0
vn -0.965926 0.258819 -0
vn -0.887114 0.461551 0
vn -1 -0 0
vn -0.965926 -0.258819 0
vn -0.999038 0.043842 -0
vn -0.976344 -0.216222 0
vn -0.866025 -0.5 0
vn -0.887114 -0.461551 0
vn -0.707107 -0.707107 0
vn -0.737428 -0.675426 0
vn -0.5 -0.866025 0
vn -0.95365 -0.300918 0
vn -0.843272 -0.537488 0
vn -0.675426 -0.737428 0
vn -0.258819 -0.965926 0
vn -0.461551 -0.887114 0
vn -0.043842 -0.999038 0
vn 0.216222 -0.976344 0
vn 0.461551 -0.887114 0
vn 0.675426 -0.737428 0
vn 0.843272 -0.537487 0
vn 0.95365 -0.300918 0
vn -0.300918 -0.95365 0
vn -0.537487 -0.843272 0
vn -0.999038 -0.043842 0
vn -0.976344 0.216222 -0
vn -0.95365 0.300918 0
vn -0.843272 0.537487 0
vn -0.043842 0.999038 -0
vn 0.216222 0.976344 0
vn 0.300918 0.95365 0
vn 0.537487 0.843272 0
vn 0.999038 0.043842 0
vn 0.976344 -0.216222 0
vn 0.887114 -0.461551 0
vn 0 0 -1

# Mesh 'Cylinder01' with 288 faces
g Cylinder01
usemtl $Material_0
f  1//1 2//1 3//1
f  2//1 4//1 3//1
f  4//1 5//1 3//1
f  5//1 6//1 3//1
f  6//1 7//1 3//1
f  7//1 8//1 3//1
f  8//1 9//1 3//1
f  9//1 10//1 3//1
f  10//1 11//1 3//1
f  11//1 12//1 3//1
f  12//1 13//1 3//1
f  13//1 14//1 3//1
f  14//1 15//1 3//1
f  15//1 16//1 3//1
f  16//1 17//1 3//1
f  17//1 18//1 3//1
f  18//1 19//1 3//1
f  19//1 20//1 3//1
f  20//1 21//1 3//1
f  21//1 22//1 3//1
f  22//1 23//1 3//1
f  23//1 24//1 3//1
f  24//1 25//1 3//1
f  25//1 1//1 3//1
f  26//2 27//3 1//4
f  27//3 2//5 1//4
f  26//2 1//4 25//6
f  27//3 28//7 2//5
f  29//3 27//3 26//2
f  29//3 30//7 27//3
f  30//7 28//7 27//3
f  28//7 4//8 2//5
f  28//7 31//9 4//8
f  30//7 32//9 28//7
f  32//9 31//9 28//7
f  33//7 30//7 29//3
f  33//7 34//9 30//7
f  34//9 32//9 30//7
f  32//9 35//10 31//9
f  34//9 36//10 32//9
f  36//10 35//10 32//9
f  31//9 5//11 4//8
f  31//9 37//10 5//11
f  35//10 37//10 31//9
f  35//10 38//12 37//10
f  36//10 39//12 35//10
f  39//12 38//12 35//10
f  40//10 36//10 34//9
f  40//10 41//12 36//10
f  41//12 39//12 36//10
f  39//12 42//13 38//12
f  41//12 43//13 39//12
f  43//13 42//13 39//12
f  38//12 44//12 37//10
f  38//12 45//13 44//12
f  42//13 45//13 38//12
f  42//13 46//14 45//13
f  43//13 47//14 42//13
f  47//14 46//14 42//13
f  48//15 43//13 41//12
f  48//15 49//16 43//13
f  49//16 47//14 43//13
f  47//14 50//17 46//14
f  49//16 51//18 47//14
f  51//18 50//17 47//14
f  46//14 52//14 45//13
f  46//14 53//17 52//14
f  50//17 53//17 46//14
f  50//17 54//19 53//17
f  51//18 55//20 50//17
f  55//20 54//19 50//17
f  53//17 56//17 52//14
f  53//17 57//19 56//17
f  54//19 57//19 53//17
f  45//13 52//14 58//13
f  52//14 59//14 58//13
f  52//14 56//17 59//14
f  56//17 60//17 59//14
f  56//17 61//19 60//17
f  57//19 61//19 56//17
f  57//19 62//21 61//19
f  54//19 63//21 57//19
f  63//21 62//21 57//19
f  61//19 64//19 60//17
f  61//19 65//21 64//19
f  62//21 65//21 61//19
f  59//14 60//17 9//22
f  60//17 10//23 9//22
f  60//17 64//19 10//23
f  64//19 11//24 10//23
f  64//19 66//21 11//24
f  65//21 66//21 64//19
f  65//21 67//25 66//21
f  62//21 68//25 65//21
f  68//25 67//25 65//21
f  66//21 12//26 11//24
f  66//21 69//25 12//26
f  67//25 69//25 66//21
f  67//25 70//27 69//25
f  68//25 71//27 67//25
f  71//27 70//27 67//25
f  72//25 68//25 62//21
f  72//25 73//27 68//25
f  73//27 71//27 68//25
f  71//27 74//28 70//27
f  73//27 75//28 71//27
f  75//28 74//28 71//27
f  76//29 73//27 72//25
f  76//29 77//30 73//27
f  77//30 75//28 73//27
f  75//28 78//31 74//28
f  77//30 79//32 75//28
f  79//32 78//31 75//28
f  74//28 80//28 70//27
f  74//28 81//31 80//28
f  78//31 81//31 74//28
f  78//31 82//33 81//31
f  79//32 83//34 78//31
f  83//34 82//33 78//31
f  81//31 84//31 80//28
f  81//31 85//33 84//31
f  82//33 85//33 81//31
f  70//27 80//28 86//27
f  80//28 87//28 86//27
f  80//28 84//31 87//28
f  84//31 88//31 87//28
f  84//31 89//33 88//31
f  85//33 89//33 84//31
f  85//33 90//35 89//33
f  82//33 91//35 85//33
f  91//35 90//35 85//33
f  89//33 92//33 88//31
f  89//33 93//35 92//33
f  90//35 93//35 89//33
f  87//28 88//31 15//36
f  88//31 16//37 15//36
f  88//31 92//33 16//37
f  92//33 17//38 16//37
f  92//33 94//35 17//38
f  93//35 94//35 92//33
f  93//35 95//39 94//35
f  90//35 96//39 93//35
f  96//39 95//39 93//35
f  94//35 18//40 17//38
f  94//35 97//39 18//40
f  95//39 97//39 94//35
f  95//39 98//41 97//39
f  96//39 99//41 95//39
f  99//41 98//41 95//39
f  100//39 96//39 90//35
f  100//39 101//41 96//39
f  101//41 99//41 96//39
f  99//41 102//42 98//41
f  101//41 103//42 99//41
f  103//42 102//42 99//41
f  104//43 101//41 100//39
f  104//43 105//44 101//41
f  105//44 103//42 101//41
f  103//42 106//45 102//42
f  105//44 107//46 103//42
f  107//46 106//45 103//42
f  102//42 108//42 98//41
f  102//42 109//45 108//42
f  106//45 109//45 102//42
f  106//45 110//47 109//45
f  107//46 111//48 106//45
f  111//48 110//47 106//45
f  109//45 112//45 108//42
f  109//45 113//47 112//45
f  110//47 113//47 109//45
f  98//41 108//42 114//41
f  108//42 115//42 114//41
f  108//42 112//45 115//42
f  112//45 116//45 115//42
f  112//45 117//47 116//45
f  113//47 117//47 112//45
f  113//47 118//49 117//47
f  110//47 119//49 113//47
f  119//49 118//49 113//47
f  117//47 120//47 116//45
f  117//47 121//49 120//47
f  118//49 121//49 117//47
f  115//42 116//45 21//50
f  116//45 22//51 21//50
f  116//45 120//47 22//51
f  120//47 23//52 22//51
f  120//47 122//49 23//52
f  121//49 122//49 120//47
f  121//49 123//53 122//49
f  118//49 124//53 121//49
f  124//53 123//53 121//49
f  122//49 24//54 23//52
f  122//49 125//53 24//54
f  123//53 125//53 122//49
f  123//53 126//2 125//53
f  124//53 127//2 123//53
f  127//2 126//2 123//53
f  128//53 124//53 118//49
f  128//53 129//2 124//53
f  129//2 127//2 124//53
f  127//2 130//3 126//2
f  129//2 131//3 127//2
f  131//3 130//3 127//2
f  132//55 133//56 129//2
f  133//56 131//3 129//2
f  132//55 129//2 128//53
f  131//3 134//7 130//3
f  133//56 135//57 131//3
f  135//57 134//7 131//3
f  130//3 29//3 126//2
f  130//3 33//7 29//3
f  134//7 33//7 130//3
f  134//7 136//9 33//7
f  135//57 137//58 134//7
f  137//58 136//9 134//7
f  136//9 34//9 33//7
f  136//9 40//10 34//9
f  137//58 138//59 136//9
f  138//59 40//10 136//9
f  138//59 139//60 40//10
f  139//60 41//12 40//10
f  139//60 48//15 41//12
f  126//2 29//3 26//2
f  126//2 26//2 125//53
f  125//53 26//2 25//6
f  125//53 25//6 24//54
f  119//49 128//53 118//49
f  140//61 128//53 119//49
f  140//61 132//55 128//53
f  141//62 119//49 110//47
f  141//62 140//61 119//49
f  111//48 141//62 110//47
f  115//42 21//50 20//63
f  114//41 115//42 20//63
f  114//41 20//63 19//64
f  97//39 114//41 19//64
f  98//41 114//41 97//39
f  97//39 19//64 18//40
f  142//65 104//43 100//39
f  143//66 142//65 91//35
f  142//65 100//39 91//35
f  91//35 100//39 90//35
f  143//66 91//35 82//33
f  83//34 143//66 82//33
f  87//28 15//36 14//67
f  86//27 87//28 14//67
f  86//27 14//67 13//68
f  69//25 86//27 13//68
f  70//27 86//27 69//25
f  69//25 13//68 12//26
f  144//69 76//29 72//25
f  145//70 144//69 63//21
f  144//69 72//25 63//21
f  63//21 72//25 62//21
f  145//70 63//21 54//19
f  55//20 145//70 54//19
f  59//14 9//22 8//71
f  58//13 59//14 8//71
f  58//13 8//71 7//72
f  44//12 58//13 7//72
f  45//13 58//13 44//12
f  44//12 7//72 6//73
f  37//10 44//12 6//73
f  37//10 6//73 5//11
f  133//74 132//74 146//74
f  135//74 133//74 146//74
f  137//74 135//74 146//74
f  138//74 137//74 146//74
f  139//74 138//74 146//74
f  48//74 139//74 146//74
f  49//74 48//74 146//74
f  51//74 49//74 146//74
f  55//74 51//74 146//74
f  145//74 55//74 146//74
f  144//74 145//74 146//74
f  76//74 144//74 146//74
f  77//74 76//74 146//74
f  79//74 77//74 146//74
f  83//74 79//74 146//74
f  143//74 83//74 146//74
f  142//74 143//74 146//74
f  104//74 142//74 146//74
f  105//74 104//74 146//74
f  107//74 105//74 146//74
f  111//74 107//74 146//74
f  141//74 111//74 146//74
f  140//74 141//74 146//74
f  132//74 140//74 146//74

