# File produced by Open Asset Import Library (http://www.assimp.sf.net)
# (assimp v3.1.187496374)

mtllib eave_tile_new.obj.mtl

# 102 vertex positions
v  2.74403 13.6222 14.5548
v  -59.9484 12.213 14.5548
v  -59.9484 6.49838 17.8542
v  4.71183 8.25709 17.8542
v  -59.9484 -2e-06 19
v  -0.0687027 -0.364275 19
v  1.28347 17.6043 9.49999
v  -59.9484 16.4545 9.49999
v  0.506329 19.7231 3.29931
v  -59.9484 18.7113 3.2993
v  0.506329 19.7231 -3.29932
v  -59.9484 18.7113 -3.29933
v  1.28347 17.6043 -9.50001
v  -59.9484 16.4545 -9.50001
v  2.74403 13.6222 -14.5549
v  -59.9484 12.213 -14.5549
v  4.71183 8.25708 -17.8542
v  -59.9484 6.49838 -17.8542
v  -0.0687027 -0.364277 -19
v  6.94952 2.15613 -19
v  -59.9484 -4e-06 -19
v  9.18723 -3.94483 -17.8542
v  2.169 -6.46524 -17.8542
v  11.155 -9.30993 -14.5548
v  4.1368 -11.8303 -14.5548
v  12.6156 -13.292 -9.5
v  5.59735 -15.8124 -9.5
v  13.3927 -15.4109 -3.29932
v  6.3745 -17.9313 -3.29932
v  13.3927 -15.4109 3.29931
v  6.37449 -17.9313 3.29931
v  12.6156 -13.292 9.5
v  5.59735 -15.8124 9.5
v  11.155 -9.30992 14.5548
v  4.1368 -11.8303 14.5548
v  9.18722 -3.94482 17.8542
v  2.169 -6.46523 17.8542
v  6.94952 2.15613 19
v  -3.38882 8.68787 -11.4907
v  -1.8353 4.45227 -14.0954
v  -0.0686951 -0.364274 -15
v  -1.8353 4.45227 14.0954
v  -0.0686951 -0.364273 15
v  1.69791 -5.18083 -14.0954
v  3.25144 -9.41642 -11.4907
v  5.01804 -14.233 -2.60473
v  4.4045 -12.5602 7.5
v  1.69791 -5.18082 14.0954
v  3.25143 -9.41642 11.4907
v  5.01804 -14.233 2.60472
v  4.4045 -12.5602 -7.5
v  -3.38882 8.68787 11.4907
v  -4.54189 11.8316 7.49999
v  -5.15543 13.5044 -2.60473
v  -5.15543 13.5044 2.60471
v  -4.54189 11.8316 -7.50001
v  -59.9485 -3e-06 15
v  -59.9484 5.1303 14.0954
v  -59.9484 9.64182 11.4907
v  -59.9484 12.9904 7.49999
v  -59.9484 14.7721 2.60471
v  -59.9484 14.7721 -2.60473
v  -59.9484 12.9904 -7.50001
v  -59.9484 9.64181 -11.4907
v  -59.9484 5.1303 -14.0954
v  -59.9484 -4e-06 -15
v  8.70584 -2.95309 14.8271
v  6.84753 2.1135 15.7787
v  4.98922 7.18009 14.8271
v  10.34 -7.40859 12.0872
v  11.553 -10.7156 7.88936
v  12.1983 -12.4752 2.73994
v  12.1983 -12.4752 -2.73995
v  11.553 -10.7156 -7.88937
v  10.34 -7.40859 -12.0872
v  8.70585 -2.9531 -14.8272
v  6.84753 2.11349 -15.7787
v  4.98922 7.18009 -14.8272
v  3.35504 11.6356 -12.0872
v  2.14211 14.9426 -7.88937
v  1.49672 16.7022 -2.73996
v  1.49672 16.7022 2.73994
v  2.14211 14.9426 7.88936
v  3.35504 11.6356 12.0872
v  6.07045 -4.05486 14.8271
v  4.21214 1.01173 15.7787
v  7.70463 -8.51035 12.0872
v  2.35382 6.07833 14.8271
v  0.719643 10.5338 12.0872
v  -0.493286 13.8408 7.88936
v  -1.13868 15.6004 2.73994
v  -1.13868 15.6004 -2.73996
v  -0.493286 13.8408 -7.88937
v  0.719646 10.5338 -12.0872
v  2.35382 6.07833 -14.8272
v  4.21214 1.01173 -15.7787
v  6.07045 -4.05487 -14.8272
v  7.70463 -8.51036 -12.0872
v  8.91756 -11.8173 -7.88937
v  9.56295 -13.577 -2.73995
v  9.56295 -13.577 2.73994
v  8.91756 -11.8173 7.88936

# 0 UV coordinates

# 162 vertex normals
vn -0.014541 0.609958 0.7923
vn -0.01462 0.693079 0.720713
vn -0.007121 0.338003 0.941118
vn -0.025954 0.27734 0.960421
vn 0.001056 0.173648 0.984807
vn 0.011375 0.029182 0.999509
vn -0.016812 0.843148 0.537418
vn -0.016184 0.896397 0.442957
vn -0.016955 0.974138 0.225318
vn -0.016622 0.993162 0.115551
vn -0.016633 0.993826 -0.109695
vn -0.016952 0.974155 -0.225243
vn -0.016256 0.900405 -0.434748
vn -0.016733 0.840129 -0.542129
vn -0.014732 0.698921 -0.715047
vn -0.014354 0.603138 -0.797508
vn -0.02233 0.3358 -0.941669
vn -0.005477 0.273277 -0.96192
vn 0.011376 0.029182 -0.999509
vn 0 0 -1
vn 0.001056 0.173648 -0.984807
vn 0.096766 -0.269452 -0.95814
vn 0.134038 -0.373236 -0.918003
vn 0.201692 -0.561623 -0.802433
vn 0.232075 -0.646227 -0.727002
vn 0.282289 -0.78605 -0.549944
vn 0.30212 -0.84127 -0.448317
vn 0.328837 -0.915667 -0.231127
vn 0.335724 -0.934845 -0.115563
vn 0.335724 -0.934845 0.115564
vn 0.328837 -0.915667 0.231128
vn 0.302119 -0.84127 0.448318
vn 0.282289 -0.78605 0.549944
vn 0.232075 -0.646227 0.727002
vn 0.201692 -0.561623 0.802434
vn 0.115601 -0.321898 0.93969
vn 0 0 1
vn -0.938843 -0.344347 -0
vn -0.938842 -0.344347 0
vn -0.938843 -0.344346 -1e-06
vn -0.938843 -0.344347 1e-06
vn -0.938843 -0.344346 -0
vn -0.938843 -0.344346 -2e-06
vn -0.938843 -0.344347 2e-06
vn -0.938842 -0.344348 2e-06
vn -0.938842 -0.344349 6e-06
vn -0.938843 -0.344345 -0
vn -0.938842 -0.344347 -1e-06
vn -0.938843 -0.344345 2e-06
vn -0.938844 -0.344342 3e-06
vn -0.938842 -0.344349 -3e-06
vn -0.938842 -0.344348 -1e-06
vn -0.938842 -0.344348 0
vn -0.001576 -0.179319 -0.98379
vn -0.005613 -0.405673 -0.914001
vn -0.003142 -0.299308 -0.954151
vn -0.001125 -0.184985 -0.982741
vn -0.009423 -0.613503 -0.789637
vn -0.012767 -0.694788 -0.719101
vn -0.016599 -0.845197 -0.534198
vn -0.019466 -0.897003 -0.441595
vn -0.021833 -0.974381 -0.223842
vn -0.022975 -0.993037 -0.115538
vn -0.022994 -0.993861 0.108218
vn -0.021839 -0.974399 0.223761
vn -0.019574 -0.902009 0.431274
vn -0.016551 -0.841416 0.540135
vn -0.012919 -0.702139 0.711923
vn -0.009325 -0.604896 0.79625
vn -0.005703 -0.409504 0.912291
vn -0.003057 -0.290117 0.956986
vn -0.00161 -0.179503 0.983756
vn -0.001056 -0.173648 0.984807
vn -1 0 -1e-06
vn -1 0 1e-06
vn -1 0 0
vn -0.006083 -0.999982 -0
vn -0.006083 -0.999982 -1e-06
vn -0.006083 -0.999982 1e-06
vn 0.934253 0.355154 -0.032213
vn 0.934253 0.355153 -0.032214
vn 0.938291 0.344146 -0.034263
vn 0.938291 0.344146 -0.034262
vn 0.941671 0.334924 -0.032871
vn 0.942974 0.331375 -0.031489
vn 0.930164 0.366293 -0.024978
vn 0.931229 0.363391 -0.027566
vn 0.927709 0.372986 -0.015408
vn 0.928405 0.37109 -0.018899
vn 0.92653 0.376199 -0.003972
vn 0.926772 0.37554 -0.007944
vn 0.926772 0.37554 0.007944
vn 0.926531 0.376198 0.003972
vn 0.928404 0.371091 0.018899
vn 0.927709 0.372986 0.015408
vn 0.931229 0.363391 0.027566
vn 0.930164 0.366293 0.024978
vn 0.934903 0.353374 0.0329
vn 0.933598 0.356931 0.031527
vn 0.938982 0.342255 0.034259
vn 0.937595 0.346036 0.034266
vn 0.942974 0.331375 0.031489
vn 0.941671 0.334924 0.032871
vn 0.946397 0.322043 0.024927
vn 0.945336 0.324934 0.027517
vn 0.948841 0.315381 0.015367
vn 0.948149 0.317267 0.018852
vn 0.950013 0.312186 0.003961
vn 0.949773 0.312841 0.007921
vn 0.949773 0.31284 -0.007921
vn 0.950013 0.312186 -0.003961
vn 0.948149 0.317266 -0.018852
vn 0.948841 0.31538 -0.015367
vn 0.945336 0.324934 -0.027517
vn 0.946397 0.322043 -0.024927
vn -0.022654 0.054187 -0.998274
vn -0.132031 0.315812 -0.939591
vn -0.13203 0.315812 -0.939591
vn 0.022654 -0.054188 -0.998274
vn -0.230307 0.550887 -0.802173
vn -0.264973 0.633808 -0.726689
vn 0.13203 -0.315813 -0.939591
vn 0.230307 -0.550888 -0.802173
vn 0.264973 -0.633808 -0.726689
vn 0.322239 -0.770786 -0.549592
vn 0.344843 -0.824855 -0.447992
vn 0.375289 -0.897681 -0.230925
vn 0.383135 -0.916448 -0.115463
vn 0.383135 -0.916448 0.115462
vn 0.375289 -0.897681 0.230925
vn 0.344844 -0.824855 0.447992
vn 0.322239 -0.770785 0.549593
vn 0.264973 -0.633808 0.726689
vn 0.230307 -0.550887 0.802173
vn 0.153083 -0.36617 0.91787
vn 0.110522 -0.264365 0.958069
vn 0.022654 -0.054187 0.998274
vn -0.022654 0.054188 0.998274
vn -0.110522 0.264366 0.958069
vn -0.153083 0.36617 0.91787
vn -0.230307 0.550888 0.802173
vn -0.264973 0.633808 0.726689
vn -0.322238 0.770786 0.549592
vn -0.344843 0.824856 0.447991
vn -0.375289 0.897681 0.230924
vn -0.383135 0.916448 0.115462
vn -0.383135 0.916448 -0.115462
vn -0.375289 0.897681 -0.230925
vn -0.344843 0.824855 -0.447992
vn -0.322238 0.770786 -0.549592
vn 0.938843 0.344347 0
vn 0.938842 0.344347 0
vn 0.938843 0.344347 1e-06
vn 0.938843 0.344346 3e-06
vn 0.938843 0.344347 -1e-06
vn 0.938842 0.344349 -1e-06
vn 0.938843 0.344346 -2e-06
vn 0.938843 0.344347 2e-06
vn 0.938843 0.344346 1e-06
vn 0.938843 0.344346 2e-06
vn 0.938842 0.344348 0
vn 0.938843 0.344346 -1e-06

# Mesh 'Cylinder02' with 200 faces
g Cylinder02
usemtl $Material_0
f  1//1 2//2 3//3
f  3//3 4//4 1//1
f  3//3 5//5 6//6
f  6//6 4//4 3//3
f  2//2 1//1 7//7
f  7//7 8//8 2//2
f  8//8 7//7 9//9
f  9//9 10//10 8//8
f  10//10 9//9 11//11
f  11//11 12//12 10//10
f  12//12 11//11 13//13
f  13//13 14//14 12//12
f  14//14 13//13 15//15
f  15//15 16//16 14//14
f  16//16 15//15 17//17
f  17//17 18//18 16//16
f  18//18 17//17 19//19
f  17//17 20//20 19//19
f  19//19 21//21 18//18
f  22//22 23//23 19//19
f  19//19 20//20 22//22
f  23//23 22//22 24//24
f  24//24 25//25 23//23
f  25//25 24//24 26//26
f  26//26 27//27 25//25
f  27//27 26//26 28//28
f  28//28 29//29 27//27
f  29//29 28//28 30//30
f  30//30 31//31 29//29
f  31//31 30//30 32//32
f  32//32 33//33 31//31
f  33//33 32//32 34//34
f  34//34 35//35 33//33
f  35//35 34//34 36//36
f  36//36 37//36 35//35
f  36//36 38//37 6//6
f  6//6 37//36 36//36
f  4//4 6//6 38//37
f  39//38 40//38 41//39
f  42//39 39//38 41//39
f  42//39 41//39 43//40
f  41//39 44//41 45//39
f  41//39 45//39 46//42
f  41//39 46//42 47//42
f  41//39 47//42 48//43
f  41//39 48//43 43//40
f  41//39 19//44 23//44
f  23//44 44//41 41//39
f  6//38 43//40 48//43
f  47//42 49//43 48//43
f  6//38 48//43 49//43
f  35//45 37//46 6//38
f  33//38 35//45 6//38
f  33//38 6//38 49//43
f  33//38 49//43 47//42
f  31//42 33//38 47//42
f  46//42 29//39 31//42
f  31//42 50//47 46//42
f  47//42 50//47 31//42
f  29//39 51//48 45//39
f  25//49 27//50 29//39
f  25//49 29//39 45//39
f  29//39 46//42 51//48
f  46//42 50//47 47//42
f  45//39 51//48 46//42
f  45//39 44//41 23//44
f  23//44 25//49 45//39
f  42//39 52//51 53//52
f  42//39 53//52 54//38
f  42//39 54//38 39//38
f  53//52 55//53 54//38
f  54//38 56//40 39//38
f  57//54 58//55 42//56
f  42//56 43//57 57//54
f  52//58 42//56 58//55
f  58//55 59//59 52//58
f  53//60 52//58 59//59
f  59//59 60//61 53//60
f  55//62 53//60 60//61
f  60//61 61//63 55//62
f  54//64 55//62 61//63
f  61//63 62//65 54//64
f  56//66 54//64 62//65
f  62//65 63//67 56//66
f  39//68 56//66 63//67
f  63//67 64//69 39//68
f  40//70 39//68 64//69
f  64//69 65//71 40//70
f  41//72 40//70 65//71
f  65//71 66//73 41//72
f  2//74 58//74 57//74
f  3//75 2//74 57//74
f  5//75 3//75 57//74
f  58//74 2//74 8//76
f  8//76 59//76 58//74
f  59//76 8//76 10//76
f  10//76 60//76 59//76
f  60//76 10//76 12//76
f  12//76 61//76 60//76
f  61//76 12//76 14//76
f  14//76 62//76 61//76
f  62//76 14//76 16//76
f  16//76 63//76 62//76
f  63//76 16//76 18//76
f  18//76 64//76 63//76
f  64//76 18//76 21//76
f  21//76 65//76 64//76
f  21//76 66//76 65//76
f  43//77 6//78 5//77
f  5//77 57//77 43//77
f  66//77 21//77 19//77
f  19//77 41//79 66//77
f  36//80 67//81 68//82
f  38//83 36//80 68//82
f  4//84 38//83 68//82
f  4//84 68//82 69//85
f  36//80 34//86 70//87
f  67//81 36//80 70//87
f  34//86 32//88 71//89
f  34//86 71//89 70//87
f  32//88 30//90 72//91
f  32//88 72//91 71//89
f  30//90 28//92 73//93
f  30//90 73//93 72//91
f  28//92 26//94 74//95
f  28//92 74//95 73//93
f  26//94 24//96 75//97
f  26//94 75//97 74//95
f  24//96 22//98 76//99
f  24//96 76//99 75//97
f  22//98 20//100 77//101
f  22//98 77//101 76//99
f  20//100 17//102 78//103
f  20//100 78//103 77//101
f  17//102 15//104 79//105
f  17//102 79//105 78//103
f  15//104 13//106 80//107
f  15//104 80//107 79//105
f  13//106 11//108 81//109
f  13//106 81//109 80//107
f  11//108 9//110 82//111
f  11//108 82//111 81//109
f  9//110 7//112 83//113
f  9//110 83//113 82//111
f  7//112 1//114 84//115
f  7//112 84//115 83//113
f  1//114 4//84 69//85
f  1//114 69//85 84//115
f  68//116 67//117 85//118
f  85//118 86//119 68//116
f  70//120 87//121 85//118
f  85//118 67//117 70//120
f  69//122 68//116 86//119
f  86//119 88//122 69//122
f  69//122 88//122 89//123
f  89//123 84//124 69//122
f  84//124 89//123 90//125
f  90//125 83//126 84//124
f  83//126 90//125 91//127
f  91//127 82//128 83//126
f  82//128 91//127 92//129
f  92//129 81//130 82//128
f  81//130 92//129 93//131
f  93//131 80//132 81//130
f  80//132 93//131 94//133
f  94//133 79//134 80//132
f  79//134 94//133 95//135
f  95//135 78//136 79//134
f  78//136 95//135 96//137
f  96//137 77//138 78//136
f  77//138 96//137 97//139
f  97//139 76//140 77//138
f  76//140 97//139 98//141
f  98//141 75//142 76//140
f  75//142 98//141 99//143
f  99//143 74//144 75//142
f  74//144 99//143 100//145
f  100//145 73//146 74//144
f  73//146 100//145 101//147
f  101//147 72//148 73//146
f  72//148 101//147 102//149
f  102//149 71//150 72//148
f  71//150 102//149 87//121
f  87//121 70//120 71//150
f  89//151 88//152 86//153
f  101//152 89//151 86//153
f  87//153 101//152 86//153
f  87//153 86//153 85//154
f  101//152 100//152 99//155
f  101//152 99//155 97//151
f  101//152 97//151 89//151
f  87//153 102//156 101//152
f  99//155 98//157 97//151
f  97//151 96//158 95//159
f  97//151 95//159 93//151
f  97//151 93//151 89//151
f  95//159 94//160 93//151
f  93//151 92//161 91//151
f  93//151 91//151 89//151
f  91//151 90//162 89//151

