# File produced by Open Asset Import Library (http://www.assimp.sf.net)
# (assimp v3.1.187496374)

mtllib eave_tile_n.obj.mtl

# 102 vertex positions
v  2.74403 13.6222 14.5548
v  -80 12.213 14.5548
v  -80 6.49838 17.8542
v  4.71183 8.25709 17.8542
v  -80 -2e-06 19
v  -0.068703 -0.364275 19
v  1.28347 17.6043 9.49999
v  -80 16.4545 9.49999
v  0.506329 19.7231 3.29931
v  -80 18.7113 3.2993
v  0.506329 19.7231 -3.29932
v  -80 18.7113 -3.29933
v  1.28347 17.6043 -9.50001
v  -80 16.4545 -9.50001
v  2.74403 13.6222 -14.5549
v  -80 12.213 -14.5549
v  4.71183 8.25708 -17.8542
v  -80 6.49838 -17.8542
v  -0.068703 -0.364277 -19
v  6.94952 2.15613 -19
v  -80 -4e-06 -19
v  9.18723 -3.94483 -17.8542
v  2.169 -6.46524 -17.8542
v  11.155 -9.30993 -14.5548
v  4.1368 -11.8303 -14.5548
v  12.6156 -13.292 -9.5
v  5.59735 -15.8124 -9.5
v  13.3927 -15.4109 -3.29932
v  6.3745 -17.9313 -3.29932
v  13.3927 -15.4109 3.29931
v  6.37449 -17.9313 3.29931
v  12.6156 -13.292 9.5
v  5.59735 -15.8124 9.5
v  11.155 -9.30992 14.5548
v  4.1368 -11.8303 14.5548
v  9.18722 -3.94482 17.8542
v  2.169 -6.46523 17.8542
v  6.94952 2.15613 19
v  -3.38882 8.68787 -11.4907
v  -1.8353 4.45227 -14.0954
v  -0.068695 -0.364274 -15
v  -1.8353 4.45227 14.0954
v  -0.068695 -0.364273 15
v  1.69791 -5.18083 -14.0954
v  3.25144 -9.41642 -11.4907
v  5.01804 -14.233 -2.60473
v  4.4045 -12.5602 7.5
v  1.69791 -5.18082 14.0954
v  3.25143 -9.41642 11.4907
v  5.01804 -14.233 2.60472
v  4.4045 -12.5602 -7.5
v  -3.38882 8.68787 11.4907
v  -4.54189 11.8316 7.49999
v  -5.15543 13.5044 -2.60473
v  -5.15543 13.5044 2.60471
v  -4.54189 11.8316 -7.50001
v  -80 -3e-06 15
v  -80 5.1303 14.0954
v  -80 9.64182 11.4907
v  -80 12.9904 7.49999
v  -80 14.7721 2.60471
v  -80 14.7721 -2.60473
v  -80 12.9904 -7.50001
v  -80 9.64181 -11.4907
v  -80 5.1303 -14.0954
v  -80 -4e-06 -15
v  8.70584 -2.95309 14.8271
v  6.84753 2.1135 15.7787
v  4.98922 7.18009 14.8271
v  10.34 -7.40859 12.0872
v  11.553 -10.7156 7.88936
v  12.1983 -12.4752 2.73994
v  12.1983 -12.4752 -2.73995
v  11.553 -10.7156 -7.88937
v  10.34 -7.40859 -12.0872
v  8.70585 -2.9531 -14.8272
v  6.84753 2.11349 -15.7787
v  4.98922 7.18009 -14.8272
v  3.35504 11.6356 -12.0872
v  2.14211 14.9426 -7.88937
v  1.49672 16.7022 -2.73996
v  1.49672 16.7022 2.73994
v  2.14211 14.9426 7.88936
v  3.35504 11.6356 12.0872
v  6.07045 -4.05486 14.8271
v  4.21214 1.01173 15.7787
v  7.70463 -8.51035 12.0872
v  2.35382 6.07833 14.8271
v  0.719643 10.5338 12.0872
v  -0.493286 13.8408 7.88936
v  -1.13868 15.6004 2.73994
v  -1.13868 15.6004 -2.73996
v  -0.493286 13.8408 -7.88937
v  0.719646 10.5338 -12.0872
v  2.35382 6.07833 -14.8272
v  4.21214 1.01173 -15.7787
v  6.07045 -4.05487 -14.8272
v  7.70463 -8.51036 -12.0872
v  8.91756 -11.8173 -7.88937
v  9.56295 -13.577 -2.73995
v  9.56295 -13.577 2.73994
v  8.91756 -11.8173 7.88936

# 0 UV coordinates

# 162 vertex normals
vn -0.011055 0.610516 0.791927
vn -0.011061 0.693346 0.72052
vn -0.005426 0.338142 0.94108
vn -0.024532 0.277526 0.960405
vn 0.000791 0.173648 0.984807
vn 0.011498 0.029086 0.999511
vn -0.012696 0.843466 0.537032
vn -0.012181 0.896525 0.442825
vn -0.012748 0.974238 0.225162
vn -0.012483 0.993222 0.115558
vn -0.012491 0.993903 -0.109548
vn -0.012745 0.974251 -0.225104
vn -0.012237 0.900643 -0.434388
vn -0.012633 0.840329 -0.541929
vn -0.011147 0.69936 -0.714683
vn -0.010906 0.603403 -0.797362
vn -0.020571 0.33591 -0.941669
vn -0.004182 0.273127 -0.961969
vn 0.011498 0.029085 -0.999511
vn 0 0 -1
vn 0.000791 0.173648 -0.984807
vn 0.096766 -0.269452 -0.95814
vn 0.134038 -0.373236 -0.918003
vn 0.201692 -0.561623 -0.802433
vn 0.232075 -0.646227 -0.727002
vn 0.282289 -0.78605 -0.549944
vn 0.30212 -0.84127 -0.448317
vn 0.328837 -0.915667 -0.231127
vn 0.335724 -0.934845 -0.115563
vn 0.335724 -0.934845 0.115564
vn 0.328837 -0.915667 0.231128
vn 0.302119 -0.84127 0.448318
vn 0.282289 -0.78605 0.549944
vn 0.232075 -0.646227 0.727002
vn 0.201692 -0.561623 0.802434
vn 0.115601 -0.321898 0.93969
vn 0 0 1
vn -0.938843 -0.344347 -0
vn -0.938842 -0.344347 0
vn -0.938843 -0.344346 -1e-06
vn -0.938843 -0.344347 1e-06
vn -0.938843 -0.344346 -0
vn -0.938843 -0.344347 2e-06
vn -0.938842 -0.344348 2e-06
vn -0.938842 -0.344349 7e-06
vn -0.938843 -0.344345 -0
vn -0.938842 -0.344347 -1e-06
vn -0.938843 -0.344345 2e-06
vn -0.938844 -0.344342 3e-06
vn -0.938842 -0.344349 -3e-06
vn -0.938842 -0.344348 -1e-06
vn -0.938842 -0.344348 0
vn -0.001174 -0.179269 -0.983799
vn -0.004157 -0.405526 -0.914074
vn -0.002337 -0.299122 -0.954212
vn -0.000843 -0.184884 -0.98276
vn -0.006964 -0.613181 -0.789912
vn -0.009402 -0.694625 -0.71931
vn -0.012203 -0.845 -0.534627
vn -0.014277 -0.896991 -0.441819
vn -0.015999 -0.974442 -0.22407
vn -0.016822 -0.993159 -0.115551
vn -0.016835 -0.993958 0.108458
vn -0.016003 -0.974455 0.224012
vn -0.014354 -0.901848 0.431816
vn -0.012168 -0.841289 0.540448
vn -0.00951 -0.70176 0.71235
vn -0.006892 -0.604715 0.796412
vn -0.004221 -0.409225 0.912424
vn -0.002275 -0.290053 0.957008
vn -0.001199 -0.179404 0.983775
vn -0.000791 -0.173648 0.984807
vn -1 0 -2e-06
vn -1 0 -1e-06
vn -1 1e-06 2e-06
vn -1 0 2e-06
vn -1 0 0
vn -0.004557 -0.99999 -0
vn -0.004557 -0.99999 -1e-06
vn -0.004557 -0.99999 1e-06
vn 0.934253 0.355154 -0.032213
vn 0.934253 0.355153 -0.032214
vn 0.938291 0.344146 -0.034263
vn 0.938291 0.344146 -0.034262
vn 0.941671 0.334924 -0.032871
vn 0.942974 0.331375 -0.031489
vn 0.930164 0.366293 -0.024978
vn 0.931229 0.363391 -0.027566
vn 0.927709 0.372986 -0.015408
vn 0.928405 0.37109 -0.018899
vn 0.92653 0.376199 -0.003972
vn 0.926772 0.37554 -0.007944
vn 0.926772 0.37554 0.007944
vn 0.926531 0.376198 0.003972
vn 0.928404 0.371091 0.018899
vn 0.927709 0.372986 0.015408
vn 0.931229 0.363391 0.027566
vn 0.930164 0.366293 0.024978
vn 0.934903 0.353374 0.032899
vn 0.933599 0.356931 0.031527
vn 0.938982 0.342255 0.034259
vn 0.937595 0.346036 0.034266
vn 0.942974 0.331375 0.031489
vn 0.941671 0.334924 0.032871
vn 0.946397 0.322043 0.024927
vn 0.945336 0.324934 0.027517
vn 0.948841 0.315381 0.015367
vn 0.948149 0.317267 0.018852
vn 0.950013 0.312185 0.003961
vn 0.949773 0.31284 0.007922
vn 0.949773 0.31284 -0.007921
vn 0.950013 0.312185 -0.003961
vn 0.948149 0.317266 -0.018852
vn 0.948841 0.31538 -0.015368
vn 0.945336 0.324934 -0.027517
vn 0.946397 0.322043 -0.024927
vn -0.022654 0.054187 -0.998274
vn -0.13203 0.315812 -0.939591
vn 0.022654 -0.054188 -0.998274
vn -0.230307 0.550887 -0.802173
vn -0.264973 0.633808 -0.726689
vn 0.13203 -0.315813 -0.939591
vn 0.230307 -0.550888 -0.802173
vn 0.264973 -0.633808 -0.726689
vn 0.322239 -0.770786 -0.549592
vn 0.344843 -0.824855 -0.447992
vn 0.375289 -0.897681 -0.230925
vn 0.383135 -0.916448 -0.115463
vn 0.383135 -0.916448 0.115462
vn 0.375289 -0.897681 0.230925
vn 0.344844 -0.824855 0.447992
vn 0.322239 -0.770785 0.549593
vn 0.264973 -0.633808 0.726689
vn 0.230307 -0.550887 0.802173
vn 0.153083 -0.36617 0.91787
vn 0.110522 -0.264365 0.958069
vn 0.022654 -0.054187 0.998274
vn -0.022654 0.054188 0.998274
vn -0.110522 0.264366 0.958069
vn -0.153083 0.36617 0.91787
vn -0.230307 0.550888 0.802173
vn -0.264973 0.633808 0.726689
vn -0.322238 0.770786 0.549592
vn -0.344843 0.824856 0.447991
vn -0.375289 0.897681 0.230924
vn -0.383135 0.916448 0.115462
vn -0.383135 0.916448 -0.115462
vn -0.375289 0.897681 -0.230925
vn -0.344843 0.824855 -0.447992
vn -0.322238 0.770786 -0.549592
vn 0.938843 0.344347 0
vn 0.938842 0.344347 0
vn 0.938843 0.344347 1e-06
vn 0.938842 0.344347 1e-06
vn 0.938843 0.344346 3e-06
vn 0.938843 0.344347 -1e-06
vn 0.938842 0.344348 -1e-06
vn 0.938843 0.344345 -2e-06
vn 0.938843 0.344347 2e-06
vn 0.938843 0.344346 1e-06
vn 0.938842 0.344348 0
vn 0.938843 0.344346 -1e-06

# Mesh 'Cylinder02' with 200 faces
g Cylinder02
usemtl Material
f  1//1 2//2 3//3
f  3//3 4//4 1//1
f  3//3 5//5 6//6
f  6//6 4//4 3//3
f  2//2 1//1 7//7
f  7//7 8//8 2//2
f  8//8 7//7 9//9
f  9//9 10//10 8//8
f  10//10 9//9 11//11
f  11//11 12//12 10//10
f  12//12 11//11 13//13
f  13//13 14//14 12//12
f  14//14 13//13 15//15
f  15//15 16//16 14//14
f  16//16 15//15 17//17
f  17//17 18//18 16//16
f  18//18 17//17 19//19
f  17//17 20//20 19//19
f  19//19 21//21 18//18
f  22//22 23//23 19//19
f  19//19 20//20 22//22
f  23//23 22//22 24//24
f  24//24 25//25 23//23
f  25//25 24//24 26//26
f  26//26 27//27 25//25
f  27//27 26//26 28//28
f  28//28 29//29 27//27
f  29//29 28//28 30//30
f  30//30 31//31 29//29
f  31//31 30//30 32//32
f  32//32 33//33 31//31
f  33//33 32//32 34//34
f  34//34 35//35 33//33
f  35//35 34//34 36//36
f  36//36 37//36 35//35
f  36//36 38//37 6//6
f  6//6 37//36 36//36
f  4//4 6//6 38//37
f  39//38 40//38 41//39
f  42//39 39//38 41//39
f  42//39 41//39 43//40
f  41//39 44//41 45//39
f  41//39 45//39 46//42
f  41//39 46//42 47//42
f  41//39 47//42 48//40
f  41//39 48//40 43//40
f  41//39 19//43 23//43
f  23//43 44//41 41//39
f  6//39 43//40 48//40
f  47//42 49//40 48//40
f  6//39 48//40 49//40
f  35//44 37//45 6//39
f  33//38 35//44 6//39
f  33//38 6//39 49//40
f  33//38 49//40 47//42
f  31//42 33//38 47//42
f  46//42 29//38 31//42
f  31//42 50//46 46//42
f  47//42 50//46 31//42
f  29//38 51//47 45//39
f  25//48 27//49 29//38
f  25//48 29//38 45//39
f  29//38 46//42 51//47
f  46//42 50//46 47//42
f  45//39 51//47 46//42
f  45//39 44//41 23//43
f  23//43 25//48 45//39
f  42//39 52//50 53//51
f  42//39 53//51 54//38
f  42//39 54//38 39//38
f  53//51 55//52 54//38
f  54//38 56//40 39//38
f  57//53 58//54 42//55
f  42//55 43//56 57//53
f  52//57 42//55 58//54
f  58//54 59//58 52//57
f  53//59 52//57 59//58
f  59//58 60//60 53//59
f  55//61 53//59 60//60
f  60//60 61//62 55//61
f  54//63 55//61 61//62
f  61//62 62//64 54//63
f  56//65 54//63 62//64
f  62//64 63//66 56//65
f  39//67 56//65 63//66
f  63//66 64//68 39//67
f  40//69 39//67 64//68
f  64//68 65//70 40//69
f  41//71 40//69 65//70
f  65//70 66//72 41//71
f  2//73 58//73 57//74
f  3//75 2//73 57//74
f  5//76 3//75 57//74
f  58//73 2//73 8//77
f  8//77 59//77 58//73
f  59//77 8//77 10//77
f  10//77 60//77 59//77
f  60//77 10//77 12//77
f  12//77 61//77 60//77
f  61//77 12//77 14//77
f  14//77 62//77 61//77
f  62//77 14//77 16//77
f  16//77 63//77 62//77
f  63//77 16//77 18//77
f  18//77 64//77 63//77
f  64//77 18//77 21//77
f  21//77 65//77 64//77
f  21//77 66//77 65//77
f  43//78 6//79 5//78
f  5//78 57//78 43//78
f  66//78 21//78 19//78
f  19//78 41//80 66//78
f  36//81 67//82 68//83
f  38//84 36//81 68//83
f  4//85 38//84 68//83
f  4//85 68//83 69//86
f  36//81 34//87 70//88
f  67//82 36//81 70//88
f  34//87 32//89 71//90
f  34//87 71//90 70//88
f  32//89 30//91 72//92
f  32//89 72//92 71//90
f  30//91 28//93 73//94
f  30//91 73//94 72//92
f  28//93 26//95 74//96
f  28//93 74//96 73//94
f  26//95 24//97 75//98
f  26//95 75//98 74//96
f  24//97 22//99 76//100
f  24//97 76//100 75//98
f  22//99 20//101 77//102
f  22//99 77//102 76//100
f  20//101 17//103 78//104
f  20//101 78//104 77//102
f  17//103 15//105 79//106
f  17//103 79//106 78//104
f  15//105 13//107 80//108
f  15//105 80//108 79//106
f  13//107 11//109 81//110
f  13//107 81//110 80//108
f  11//109 9//111 82//112
f  11//109 82//112 81//110
f  9//111 7//113 83//114
f  9//111 83//114 82//112
f  7//113 1//115 84//116
f  7//113 84//116 83//114
f  1//115 4//85 69//86
f  1//115 69//86 84//116
f  68//117 67//118 85//118
f  85//118 86//119 68//117
f  70//120 87//121 85//118
f  85//118 67//118 70//120
f  69//122 68//117 86//119
f  86//119 88//122 69//122
f  69//122 88//122 89//123
f  89//123 84//124 69//122
f  84//124 89//123 90//125
f  90//125 83//126 84//124
f  83//126 90//125 91//127
f  91//127 82//128 83//126
f  82//128 91//127 92//129
f  92//129 81//130 82//128
f  81//130 92//129 93//131
f  93//131 80//132 81//130
f  80//132 93//131 94//133
f  94//133 79//134 80//132
f  79//134 94//133 95//135
f  95//135 78//136 79//134
f  78//136 95//135 96//137
f  96//137 77//138 78//136
f  77//138 96//137 97//139
f  97//139 76//140 77//138
f  76//140 97//139 98//141
f  98//141 75//142 76//140
f  75//142 98//141 99//143
f  99//143 74//144 75//142
f  74//144 99//143 100//145
f  100//145 73//146 74//144
f  73//146 100//145 101//147
f  101//147 72//148 73//146
f  72//148 101//147 102//149
f  102//149 71//150 72//148
f  71//150 102//149 87//121
f  87//121 70//120 71//150
f  89//151 88//152 86//153
f  101//152 89//151 86//153
f  87//154 101//152 86//153
f  87//154 86//153 85//155
f  101//152 100//152 99//156
f  101//152 99//156 97//151
f  101//152 97//151 89//151
f  87//154 102//157 101//152
f  99//156 98//158 97//151
f  97//151 96//159 95//160
f  97//151 95//160 93//152
f  97//151 93//152 89//151
f  95//160 94//160 93//152
f  93//152 92//161 91//152
f  93//152 91//152 89//151
f  91//152 90//162 89//151

