# File produced by Open Asset Import Library (http://www.assimp.sf.net)
# (assimp v3.1.187496374)

mtllib flat_tile_right_.obj.mtl

# 60 vertex positions
v  -0.2999 5.72199 -5.00001
v  -0.718597 13.711 -5.00001
v  -0.802521 15.3123 -1.52588e-05
v  -0.383831 7.32329 -1.52588e-05
v  -0.203789 3.88777 -10
v  -0.622467 11.8768 -10
v  -0.104603 1.99532 -15
v  -0.523293 9.98435 -15
v  -0.0115242 0.219336 -20
v  -0.430206 8.20837 -20
v  0.0662994 -1.26551 -25
v  -0.35239 6.72352 -25
v  0.119709 -2.28452 -30
v  -0.298988 5.70451 -30
v  0.13953 -2.66301 -35
v  -0.279148 5.32602 -35
v  0.119701 -2.28452 -40
v  -0.298985 5.70451 -40
v  0.0662956 -1.26551 -45
v  -0.352402 6.72352 -45
v  -0.0115204 0.21933 -50
v  -0.43021 8.20836 -50
v  -0.104599 1.99531 -55
v  -0.523285 9.98435 -55
v  -0.203766 3.88776 -60
v  -0.622452 11.8768 -60
v  -0.2999 5.72198 -65
v  -0.718582 13.711 -65
v  -0.383823 7.32327 -70
v  -0.802513 15.3123 -70
v  -80.2741 3.1364 -70
v  -80.6928 11.1254 -70
v  -80.1902 1.5351 -65
v  -80.6089 9.52413 -65
v  -80.0941 -0.299111 -60
v  -80.5128 7.68992 -60
v  -79.9949 -2.19156 -55
v  -80.4136 5.79747 -55
v  -79.9018 -3.96754 -50
v  -80.3205 4.02149 -50
v  -79.824 -5.45239 -45
v  -80.2427 2.53664 -45
v  -79.7706 -6.47139 -40
v  -80.1893 1.51764 -40
v  -79.7508 -6.84988 -35
v  -80.1695 1.13915 -35
v  -79.7706 -6.47139 -30
v  -80.1893 1.51764 -30
v  -79.824 -5.45238 -25
v  -80.2427 2.53665 -25
v  -79.9018 -3.96754 -20
v  -80.3205 4.02149 -20
v  -79.9949 -2.19155 -15
v  -80.4136 5.79748 -15
v  -80.0941 -0.299106 -10
v  -80.5128 7.68993 -10
v  -80.1902 1.53511 -5.00001
v  -80.6089 9.52415 -5.00001
v  -80.2741 3.13641 -1.52588e-05
v  -80.6928 11.1254 -1.52588e-05

# 0 UV coordinates

# 56 vertex normals
vn 0.998629 0.0523369 0
vn 0.998629 0.0523359 -1e-06
vn 0.998629 0.0523359 1e-06
vn 0.998629 0.0523359 2e-06
vn 0.998629 0.0523359 -0
vn 0.998629 0.0523349 1e-06
vn 0.998629 0.0523369 -1e-06
vn 0.998629 0.0523349 0
vn 0.998629 0.0523349 -1e-06
vn 0.998629 0.0523359 -2e-06
vn 1.19209e-07 -1.83936e-07 -1
vn -0.998629 -0.0523359 1e-06
vn -0.998629 -0.0523359 0
vn -0.998629 -0.0523359 -1e-06
vn -0.998629 -0.0523349 1e-06
vn -0.998629 -0.0523369 0
vn -1.19209e-07 1.83936e-07 1
vn -0.0498359 0.950925 -0.30538
vn -0.0494918 0.944359 -0.325169
vn -0.0490332 0.935608 -0.349617
vn -0.0490648 0.936212 -0.347994
vn -0.0491884 0.93857 -0.341564
vn -0.04961 0.946615 -0.318523
vn -0.0498952 0.952056 -0.301826
vn -0.0507708 0.968763 -0.242733
vn -0.051672 0.98596 -0.15878
vn -0.051975 0.991741 -0.117249
vn -0.052336 0.998629 0
vn -0.0518349 0.989068 0.138045
vn -0.0507708 0.968763 0.242733
vn -0.0497546 0.949373 0.310187
vn -0.0497546 0.949373 0.310186
vn -0.049127 0.937396 0.344781
vn -0.0490333 0.935609 0.349617
vn -0.0494919 0.94436 0.32517
vn -0.0494919 0.94436 0.325169
vn -0.049836 0.950926 0.30538
vn 0.0498359 -0.950925 0.30538
vn 0.0494918 -0.944359 0.325169
vn 0.0490332 -0.935608 0.349617
vn 0.0490648 -0.936212 0.347994
vn 0.0491884 -0.93857 0.341564
vn 0.04961 -0.946615 0.318523
vn 0.0498952 -0.952056 0.301826
vn 0.0507708 -0.968763 0.242733
vn 0.051672 -0.98596 0.15878
vn 0.051975 -0.991741 0.117249
vn 0.052336 -0.998629 0
vn 0.0518349 -0.989068 -0.138045
vn 0.0507708 -0.968763 -0.242733
vn 0.0497546 -0.949373 -0.310187
vn 0.0497546 -0.949373 -0.310186
vn 0.049127 -0.937396 -0.344781
vn 0.0490333 -0.935609 -0.349617
vn 0.0494919 -0.94436 -0.325169
vn 0.049836 -0.950926 -0.30538

# Mesh 'Line01' with 116 faces
g Line01
usemtl $Material_0
f  1//1 2//2 3//3
f  4//4 1//1 3//3
f  1//1 5//5 2//2
f  5//5 6//5 2//2
f  5//5 7//5 6//5
f  7//5 8//5 6//5
f  7//5 9//3 8//5
f  9//3 10//6 8//5
f  9//3 11//3 10//6
f  11//3 12//5 10//6
f  11//3 13//7 12//5
f  13//7 14//2 12//5
f  13//7 15//5 14//2
f  15//5 16//8 14//2
f  15//5 17//8 16//8
f  17//8 18//2 16//8
f  17//8 19//2 18//2
f  19//2 20//1 18//2
f  19//2 21//5 20//1
f  21//5 22//5 20//1
f  21//5 23//5 22//5
f  23//5 24//3 22//5
f  23//5 25//3 24//3
f  25//3 26//5 24//3
f  25//3 27//9 26//5
f  27//9 28//9 26//5
f  27//9 29//10 28//9
f  29//10 30//10 28//9
f  31//11 32//11 30//11
f  29//11 31//11 30//11
f  33//12 34//12 32//13
f  31//14 33//12 32//13
f  33//12 35//12 34//12
f  35//12 36//13 34//12
f  35//12 37//14 36//13
f  37//14 38//13 36//13
f  37//14 39//13 38//13
f  39//13 40//14 38//13
f  39//13 41//14 40//14
f  41//14 42//13 40//14
f  41//14 43//13 42//13
f  43//13 44//13 42//13
f  43//13 45//13 44//13
f  45//13 46//15 44//13
f  45//13 47//13 46//15
f  47//13 48//13 46//15
f  47//13 49//16 48//13
f  49//16 50//13 48//13
f  49//16 51//13 50//13
f  51//13 52//13 50//13
f  51//13 53//14 52//13
f  53//14 54//14 52//13
f  53//14 55//13 54//14
f  55//13 56//15 54//14
f  55//13 57//12 56//15
f  57//12 58//13 56//15
f  57//12 59//13 58//13
f  59//13 60//14 58//13
f  4//17 3//17 60//17
f  59//17 4//17 60//17
f  60//18 3//18 58//19
f  3//18 2//19 58//19
f  2//19 6//20 58//19
f  58//19 6//20 56//20
f  56//20 6//20 54//21
f  6//20 8//22 54//21
f  54//21 8//22 52//23
f  8//22 10//24 52//23
f  52//23 10//24 50//25
f  10//24 12//25 50//25
f  12//25 14//26 50//25
f  50//25 14//26 48//27
f  14//26 16//28 48//27
f  48//27 16//28 46//28
f  46//28 16//28 44//29
f  16//28 18//29 44//29
f  18//29 20//30 44//29
f  44//29 20//30 42//30
f  42//30 20//30 40//31
f  20//30 22//32 40//31
f  22//32 24//33 40//31
f  40//31 24//33 38//33
f  38//33 24//33 36//34
f  24//33 26//34 36//34
f  26//34 28//35 36//34
f  36//34 28//35 34//36
f  34//36 28//35 32//37
f  32//37 28//35 30//37
f  4//38 59//38 57//39
f  1//39 4//38 57//39
f  5//40 1//39 57//39
f  5//40 57//39 55//40
f  5//40 55//40 53//41
f  7//42 5//40 53//41
f  7//42 53//41 51//43
f  9//44 7//42 51//43
f  9//44 51//43 49//45
f  11//45 9//44 49//45
f  13//46 11//45 49//45
f  13//46 49//45 47//47
f  15//48 13//46 47//47
f  15//48 47//47 45//48
f  15//48 45//48 43//49
f  17//49 15//48 43//49
f  19//50 17//49 43//49
f  19//50 43//49 41//50
f  19//50 41//50 39//51
f  21//52 19//50 39//51
f  23//53 21//52 39//51
f  23//53 39//51 37//53
f  23//53 37//53 35//54
f  25//54 23//53 35//54
f  27//55 25//54 35//54
f  27//55 35//54 33//55
f  27//55 33//55 31//56
f  27//55 31//56 29//56

