# File produced by Open Asset Import Library (http://www.assimp.sf.net)
# (assimp v3.1.187496374)

mtllib flat_tile_right_end.obj.mtl

# 90 vertex positions
v  2.28882e-05 5.72984 -4.99998
v  7.62939e-06 13.7298 -4.99998
v  7.62939e-06 15.3333 2.28882e-05
v  7.62939e-06 7.33333 2.28882e-05
v  7.62939e-06 3.8931 -9.99999
v  7.62939e-06 11.8931 -9.99999
v  1.52588e-05 1.99806 -15
v  7.62939e-06 9.99806 -15
v  1.52588e-05 0.219635 -20
v  1.52588e-05 8.21963 -20
v  2.28882e-05 -1.26725 -25
v  1.52588e-05 6.73275 -25
v  2.28882e-05 -2.28765 -30
v  1.52588e-05 5.71235 -30
v  7.62939e-06 -2.66666 -35
v  1.52588e-05 5.33334 -35
v  1.52588e-05 -2.28765 -40
v  1.52588e-05 5.71235 -40
v  1.52588e-05 -1.26724 -45
v  7.62939e-06 6.73276 -45
v  1.52588e-05 0.219639 -50
v  1.52588e-05 8.21964 -50
v  1.52588e-05 1.99806 -55
v  1.52588e-05 9.99806 -55
v  3.05176e-05 3.89311 -60
v  3.05176e-05 11.8931 -60
v  2.28882e-05 5.72984 -65
v  2.28882e-05 13.7298 -65
v  1.52588e-05 7.57857 -69.8083
v  1.52588e-05 7.27187 -69.8083
v  1.52588e-05 15.2719 -69.8083
v  -80 15.3333 7.62939e-06
v  -80 15.1823 -0.471031
v  -80 7.93592 -0.471031
v  -80 7.33333 0
v  -80 7.18226 -0.471031
v  -75.1261 13.8275 -4.69537
v  -74.7746 13.7298 -4.99999
v  -74.3685 13.6005 -5.35197
v  -69.0057 11.8931 -9.99999
v  -64.3643 10.3684 -14.0228
v  -63.2368 9.99805 -15
v  -57.4679 8.21963 -20
v  -58.9834 8.68683 -18.6865
v  -51.699 6.73275 -25
v  -53.6025 7.22337 -23.3502
v  -49.4995 6.34371 -26.9063
v  -43.2823 5.53839 -32.2949
v  -45.9301 5.71234 -30
v  -40.1612 5.33333 -35
v  -37.4599 5.51081 -37.3412
v  -34.3922 5.71234 -40
v  -30.8478 6.33928 -43.072
v  -28.6233 6.73275 -45
v  -26.6981 7.22896 -46.6686
v  -22.8544 8.21964 -50
v  -18.4133 9.58873 -53.8492
v  -17.0856 9.99829 -55
v  -15.9363 10.3756 -55.996
v  -11.3166 11.8931 -60
v  -5.97886 13.5926 -64.6263
v  -5.54644 13.7221 -65.0011
v  -5.17341 13.8263 -65.3244
v  -75.1261 5.82752 -4.69537
v  -74.7746 5.72983 -4.99999
v  -74.3685 5.60053 -5.35196
v  -69.0057 3.8931 -9.99999
v  -64.3643 2.36843 -14.0228
v  -63.2368 1.99805 -15
v  -58.9834 0.686835 -18.6865
v  -57.4679 0.219631 -20
v  -53.6025 -0.776626 -23.3502
v  -51.699 -1.26725 -25
v  -49.4995 -1.65629 -26.9063
v  -45.9301 -2.28766 -30
v  -43.2823 -2.46161 -32.2949
v  -40.1611 -2.66666 -35
v  -37.4599 -2.48919 -37.3412
v  -34.3922 -2.28765 -40
v  -30.8478 -1.66071 -43.072
v  -28.6233 -1.26724 -45
v  -26.6981 -0.771032 -46.6686
v  -22.8544 0.219638 -50
v  -18.4135 1.58935 -53.8491
v  -17.0857 1.99887 -54.9999
v  -15.9363 2.37556 -55.996
v  -11.3166 3.89311 -60
v  -5.97886 5.59257 -64.6263
v  -5.54772 5.72984 -65
v  -5.17457 5.83356 -65.3234

# 0 UV coordinates

# 106 vertex normals
vn 1 1e-06 0
vn 1 1e-06 -7.7486e-07
vn 1 1e-06 1.43051e-06
vn 1 0 2.86102e-06
vn 1 0 -7.7486e-07
vn 1 0 6.55651e-07
vn 1 0 0
vn 1 -1e-06 6.55651e-07
vn 1 0 1.43051e-06
vn 1 2e-06 0
vn 1 0 -1.40071e-06
vn 1 3e-06 -7.7486e-07
vn 1 9e-06 2.86102e-06
vn 1 0 -2.11596e-06
vn -1 -0 2.11596e-06
vn -1 0 1.40071e-06
vn 0 0 1
vn 0 -1e-06 1
vn -2.98023e-07 0.952231 -0.30538
vn -1.93715e-07 0.95223 -0.305382
vn -8.9407e-08 0.95223 -0.305383
vn 4.47035e-08 0.947893 -0.31859
vn 7.45058e-08 0.943372 -0.331736
vn 1.78814e-07 0.937251 -0.348656
vn 2.68221e-07 0.938671 -0.344815
vn 2.98023e-08 0.936893 -0.349617
vn -2.5332e-07 0.935091 -0.354408
vn -2.38419e-07 0.93939 -0.342852
vn 1.49012e-08 0.938683 -0.344781
vn 4.76837e-07 0.954679 -0.297637
vn -4.61936e-07 0.947915 -0.318523
vn -1.78814e-07 0.942176 -0.335118
vn -1.49012e-07 0.970093 -0.242733
vn -8.9407e-08 0.958516 -0.28504
vn 4.69387e-07 0.988611 -0.150495
vn -1.71363e-07 0.979804 -0.19996
vn 0 1 0
vn -1.52737e-07 0.997139 -0.0755844
vn -2.45869e-07 0.990426 -0.138044
vn 1.52737e-07 0.997139 0.0755844
vn -8.9407e-08 0.993103 0.117248
vn -7.45058e-08 0.987314 0.15878
vn -1.3411e-07 0.972186 0.234208
vn 1.71363e-07 0.979804 0.19996
vn 5.96046e-08 0.970093 0.242734
vn 8.9407e-08 0.958516 0.28504
vn 2.98023e-07 0.953363 0.301826
vn -2.98023e-07 0.947915 0.318524
vn 5.23031e-06 0.93939 0.342851
vn 6.88434e-06 0.942142 0.335213
vn 1.26958e-05 0.938683 0.344782
vn 4.05312e-06 0.935115 0.354345
vn -2.98023e-08 0.936295 0.351215
vn -2.98023e-08 0.937488 0.348018
vn -0.000831857 0.94565 0.325186
vn -0.000691339 0.942199 0.335053
vn -0.00138536 0.948979 0.315335
vn -0.00138775 0.952229 0.30538
vn -0.00138775 0.95223 0.30538
vn 1.93715e-07 -0.95223 0.305382
vn -5.66244e-07 -0.95223 0.305382
vn 0 -0.952229 0.305384
vn 1.04308e-07 -0.945655 0.325171
vn 1.93715e-07 -0.945656 0.325169
vn -4.61936e-07 -0.93867 0.344817
vn -3.12924e-07 -0.93725 0.348658
vn -2.98023e-08 -0.936893 0.349617
vn -4.02331e-07 -0.935091 0.354407
vn -1.49012e-08 -0.938683 0.344781
vn 1.78814e-07 -0.942176 0.335118
vn 2.38419e-07 -0.950676 0.310187
vn 8.9407e-08 -0.958516 0.28504
vn -6.03497e-07 -0.970093 0.242733
vn 5.96046e-08 -0.970093 0.242734
vn 1.71363e-07 -0.979804 0.19996
vn -7.45058e-08 -0.987314 0.15878
vn -8.9407e-08 -0.993103 0.117248
vn 1.73226e-07 -0.999885 0.0151586
vn 1.52737e-07 -0.997139 0.0755844
vn 0 -1 0
vn -1.52737e-07 -0.997139 -0.0755844
vn 5.06639e-07 -0.990426 -0.138045
vn -1.71363e-07 -0.979804 -0.19996
vn -5.96046e-08 -0.970093 -0.242734
vn 6.70552e-07 -0.958516 -0.28504
vn -8.34465e-06 -0.950664 -0.310222
vn -7.45058e-08 -0.950652 -0.310258
vn -2.70456e-05 -0.942137 -0.335229
vn -3.16799e-05 -0.938726 -0.344665
vn -4.70877e-05 -0.938769 -0.344549
vn -1.51247e-05 -0.935173 -0.35419
vn 1.19209e-07 -0.936893 -0.349618
vn -2.83122e-07 -0.93867 -0.344817
vn -1.93715e-07 -0.945656 -0.325169
vn -1.93715e-07 -0.95223 -0.305382
vn -2.98023e-07 -0.952231 -0.30538
vn -0.654952 -2e-06 -0.755671
vn -0.654952 0 -0.755671
vn -0.654952 -1e-06 -0.755671
vn -0.654952 1e-06 -0.755671
vn -0.654952 2e-06 -0.755671
vn -0.654952 6e-06 -0.755671
vn -0.654952 4e-06 -0.755671
vn -0.654952 -5e-06 -0.755671
vn -0.654952 -7e-06 -0.755671
vn -0.654952 -3e-06 -0.755671

# Mesh 'Box01' with 176 faces
g Box01
usemtl $Material_0
f  1//1 2//2 3//3
f  4//4 1//1 3//3
f  1//1 5//5 2//2
f  5//5 6//6 2//2
f  5//5 7//6 6//6
f  7//6 8//7 6//6
f  7//6 9//6 8//7
f  9//6 10//6 8//7
f  9//6 11//6 10//6
f  11//6 12//1 10//6
f  11//6 13//2 12//1
f  13//2 14//5 12//1
f  13//2 15//7 14//5
f  15//7 16//8 14//5
f  15//7 17//8 16//8
f  17//8 18//7 16//8
f  17//8 19//1 18//7
f  19//1 20//1 18//7
f  19//1 21//6 20//1
f  21//6 22//7 20//1
f  21//6 23//7 22//7
f  23//7 24//9 22//7
f  23//7 25//9 24//9
f  25//9 26//6 24//9
f  25//9 27//10 26//6
f  27//10 28//11 26//6
f  29//12 28//11 27//10
f  27//10 30//13 29//12
f  31//14 28//11 29//12
f  32//15 33//16 34//15
f  34//15 35//15 32//15
f  36//15 35//15 34//15
f  4//17 3//17 32//17
f  35//18 4//17 32//17
f  33//19 32//20 3//19
f  3//19 37//21 33//19
f  37//21 3//19 2//22
f  2//22 38//23 37//21
f  38//23 2//22 6//24
f  6//24 39//25 38//23
f  40//26 6//24 41//27
f  41//27 6//24 8//28
f  39//25 6//24 40//26
f  8//28 42//29 41//27
f  8//28 10//30 43//31
f  43//31 44//32 8//28
f  42//29 8//28 44//32
f  10//30 12//33 45//33
f  45//33 46//34 10//30
f  43//31 10//30 46//34
f  45//33 12//33 14//35
f  14//35 47//36 45//33
f  14//35 16//37 48//38
f  48//38 49//39 14//35
f  47//36 14//35 49//39
f  50//37 16//37 51//40
f  51//40 16//37 18//41
f  48//38 16//37 50//37
f  18//41 52//42 51//40
f  52//42 18//41 20//43
f  20//43 53//44 52//42
f  54//45 20//43 55//46
f  55//46 20//43 22//47
f  53//44 20//43 54//45
f  22//47 56//48 55//46
f  56//48 22//47 24//49
f  24//49 57//50 56//48
f  58//51 24//49 59//52
f  59//52 24//49 26//53
f  57//50 24//49 58//51
f  26//53 60//54 59//52
f  60//54 26//53 28//55
f  28//55 61//56 60//54
f  62//57 28//55 63//58
f  61//56 28//55 62//57
f  63//58 28//55 31//59
f  36//60 64//61 4//60
f  4//60 35//62 36//60
f  4//60 64//61 65//63
f  65//63 1//64 4//60
f  65//63 66//65 5//66
f  5//66 1//64 65//63
f  5//66 66//65 67//67
f  5//66 67//67 68//68
f  7//69 5//66 68//68
f  68//68 69//69 7//69
f  7//69 69//69 70//70
f  9//71 7//69 70//70
f  70//70 71//71 9//71
f  9//71 71//71 72//72
f  11//73 9//71 72//72
f  72//72 73//74 11//73
f  11//73 73//74 74//75
f  74//75 13//76 11//73
f  13//76 74//75 75//77
f  15//78 13//76 75//77
f  75//77 76//79 15//78
f  15//78 76//79 77//80
f  15//78 77//80 78//81
f  17//82 15//78 78//81
f  78//81 79//82 17//82
f  17//82 79//82 80//83
f  80//83 19//84 17//82
f  19//84 80//83 81//84
f  19//84 81//84 82//85
f  21//86 19//84 82//85
f  82//85 83//87 21//86
f  21//86 83//87 84//88
f  84//88 23//89 21//86
f  23//89 84//88 85//90
f  23//89 85//90 86//91
f  25//92 23//89 86//91
f  86//91 87//92 25//92
f  25//92 87//92 88//93
f  88//93 27//94 25//92
f  27//94 88//93 89//94
f  27//94 89//94 90//95
f  30//96 27//94 90//95
f  47//97 49//98 69//99
f  45//98 47//97 69//99
f  45//98 69//99 68//100
f  49//98 70//99 69//99
f  49//98 48//98 70//99
f  70//99 50//98 29//98
f  71//97 70//99 29//98
f  48//98 50//98 70//99
f  50//98 51//98 29//98
f  51//98 52//98 29//98
f  52//98 53//98 29//98
f  53//98 54//98 29//98
f  54//98 55//98 29//98
f  55//98 56//98 29//98
f  56//98 57//98 29//98
f  57//98 58//98 29//98
f  58//98 59//98 31//98
f  58//98 31//98 29//98
f  59//98 60//98 31//98
f  60//98 63//98 31//98
f  60//98 61//98 62//98
f  60//98 62//98 63//98
f  72//97 71//97 29//98
f  29//98 89//98 88//98
f  72//97 29//98 88//98
f  29//98 30//98 90//98
f  90//98 89//98 29//98
f  80//97 73//101 72//97
f  80//97 72//97 88//98
f  81//98 80//97 88//98
f  81//98 88//98 87//98
f  80//97 79//100 73//101
f  78//102 74//103 73//101
f  79//100 78//102 73//101
f  78//102 77//98 74//103
f  76//98 75//98 74//103
f  77//98 76//98 74//103
f  81//98 87//98 86//98
f  82//98 81//98 86//98
f  82//98 86//98 85//98
f  82//98 85//98 84//98
f  83//98 82//98 84//98
f  46//100 45//98 68//100
f  46//100 68//100 67//98
f  46//100 67//98 66//98
f  46//100 66//98 65//98
f  46//100 65//98 64//98
f  46//100 64//98 34//99
f  43//104 46//100 34//99
f  64//98 36//98 34//99
f  44//105 43//104 34//99
f  42//106 44//105 34//99
f  41//106 42//106 34//99
f  40//100 41//106 34//99
f  39//98 40//100 34//99
f  38//98 39//98 34//99
f  37//98 38//98 34//99
f  33//98 37//98 34//99

