# File produced by Open Asset Import Library (http://www.assimp.sf.net)
# (assimp v3.1.187496374)

mtllib flat_tile_low.obj.mtl

# 60 vertex positions
v  -30 0.396836 36.6667
v  -30 8.39684 36.6667
v  -35 10.0003 36.6667
v  -35 2.00033 36.6667
v  -25 -1.4399 36.6667
v  -25 6.5601 36.6667
v  -20 -3.33494 36.6667
v  -20 4.66506 36.6667
v  -15 -5.11337 36.6667
v  -15 2.88663 36.6667
v  -10 -6.60025 36.6667
v  -10 1.39975 36.6667
v  -5 -7.62066 36.6667
v  -5 0.379341 36.6667
v  0 -7.99967 36.6667
v  0 0.000332832 36.6667
v  5 -7.62066 36.6667
v  5 0.379341 36.6667
v  10 -6.60025 36.6667
v  10 1.39975 36.6667
v  15 -5.11337 36.6667
v  15 2.88663 36.6667
v  20 -3.33494 36.6667
v  20 4.66506 36.6667
v  25 -1.4399 36.6667
v  25 6.5601 36.6667
v  30 0.396835 36.6667
v  30 8.39684 36.6667
v  35 2.00033 36.6667
v  35 10.0003 36.6667
v  35 2.00033 -43.3333
v  35 10.0003 -43.3333
v  30 0.396836 -43.3333
v  30 8.39684 -43.3333
v  25 -1.4399 -43.3333
v  25 6.5601 -43.3333
v  20 -3.33494 -43.3333
v  20 4.66506 -43.3333
v  15 -5.11337 -43.3333
v  15 2.88663 -43.3333
v  10 -6.60025 -43.3333
v  10 1.39975 -43.3333
v  5 -7.62066 -43.3333
v  5 0.379341 -43.3333
v  0 -7.99967 -43.3333
v  0 0.000332832 -43.3333
v  -5 -7.62066 -43.3333
v  -5 0.379341 -43.3333
v  -10 -6.60025 -43.3333
v  -10 1.39975 -43.3333
v  -15 -5.11337 -43.3333
v  -15 2.88663 -43.3333
v  -20 -3.33494 -43.3333
v  -20 4.66506 -43.3333
v  -25 -1.4399 -43.3333
v  -25 6.5601 -43.3333
v  -30 0.396835 -43.3333
v  -30 8.39684 -43.3333
v  -35 2.00033 -43.3333
v  -35 10.0003 -43.3333

# 0 UV coordinates

# 50 vertex normals
vn -0 -0 1
vn 1e-06 0 1
vn -1e-06 -0 1
vn 1 0 0
vn 0 0 -1
vn -1e-06 0 -1
vn 1e-06 0 -1
vn -1 0 -0
vn 0.30538 0.952231 0
vn 0.32517 0.945656 0
vn 0.325169 0.945656 0
vn 0.349617 0.936893 0
vn 0.347994 0.937497 0
vn 0.341564 0.939859 0
vn 0.318523 0.947915 0
vn 0.301826 0.953363 0
vn 0.242733 0.970093 0
vn 0.15878 0.987314 0
vn 0.117249 0.993103 0
vn 0 1 0
vn -0.138045 0.990426 0
vn -0.242733 0.970093 0
vn -0.310187 0.950676 0
vn -0.310186 0.950676 0
vn -0.344781 0.938683 0
vn -0.349617 0.936893 0
vn -0.32517 0.945656 0
vn -0.325169 0.945656 0
vn -0.30538 0.952231 0
vn -0.30538 -0.952231 0
vn -0.325169 -0.945656 0
vn -0.349617 -0.936893 0
vn -0.347994 -0.937497 0
vn -0.341564 -0.939859 0
vn -0.318523 -0.947915 0
vn -0.301826 -0.953363 -0
vn -0.242733 -0.970093 -0
vn -0.242734 -0.970093 -0
vn -0.15878 -0.987314 -0
vn -0.117249 -0.993103 -0
vn 0 -1 0
vn 0.138045 -0.990426 0
vn 0.242733 -0.970093 0
vn 0.242734 -0.970093 0
vn 0.310187 -0.950676 0
vn 0.310186 -0.950676 0
vn 0.344781 -0.938683 0
vn 0.349617 -0.936893 0
vn 0.325169 -0.945656 0
vn 0.30538 -0.952231 0

# Mesh 'Line01' with 116 faces
g Line01
usemtl $Material_0
f  1//1 2//2 3//3
f  4//3 1//1 3//3
f  1//1 5//2 2//2
f  5//2 6//1 2//2
f  5//2 7//3 6//1
f  7//3 8//1 6//1
f  7//3 9//3 8//1
f  9//3 10//3 8//1
f  9//3 11//3 10//3
f  11//3 12//1 10//3
f  11//3 13//2 12//1
f  13//2 14//2 12//1
f  13//2 15//1 14//2
f  15//1 16//1 14//2
f  15//1 17//1 16//1
f  17//1 18//2 16//1
f  17//1 19//2 18//2
f  19//2 20//1 18//2
f  19//2 21//3 20//1
f  21//3 22//1 20//1
f  21//3 23//3 22//1
f  23//3 24//3 22//1
f  23//3 25//3 24//3
f  25//3 26//1 24//3
f  25//3 27//2 26//1
f  27//2 28//2 26//1
f  27//2 29//2 28//2
f  29//2 30//2 28//2
f  31//4 32//4 30//4
f  29//4 31//4 30//4
f  33//5 34//6 32//7
f  31//7 33//5 32//7
f  33//5 35//6 34//6
f  35//6 36//5 34//6
f  35//6 37//7 36//5
f  37//7 38//5 36//5
f  37//7 39//7 38//5
f  39//7 40//7 38//5
f  39//7 41//7 40//7
f  41//7 42//5 40//7
f  41//7 43//6 42//5
f  43//6 44//6 42//5
f  43//6 45//5 44//6
f  45//5 46//5 44//6
f  45//5 47//5 46//5
f  47//5 48//6 46//5
f  47//5 49//6 48//6
f  49//6 50//5 48//6
f  49//6 51//7 50//5
f  51//7 52//5 50//5
f  51//7 53//7 52//5
f  53//7 54//7 52//5
f  53//7 55//7 54//7
f  55//7 56//5 54//7
f  55//7 57//6 56//5
f  57//6 58//6 56//5
f  57//6 59//6 58//6
f  59//6 60//6 58//6
f  4//8 3//8 60//8
f  59//8 4//8 60//8
f  60//9 3//9 58//10
f  3//9 2//11 58//10
f  2//11 6//12 58//10
f  58//10 6//12 56//12
f  56//12 6//12 54//13
f  6//12 8//14 54//13
f  54//13 8//14 52//15
f  8//14 10//16 52//15
f  52//15 10//16 50//17
f  10//16 12//17 50//17
f  12//17 14//18 50//17
f  50//17 14//18 48//19
f  14//18 16//20 48//19
f  48//19 16//20 46//20
f  46//20 16//20 44//21
f  16//20 18//21 44//21
f  18//21 20//22 44//21
f  44//21 20//22 42//22
f  42//22 20//22 40//23
f  20//22 22//24 40//23
f  22//24 24//25 40//23
f  40//23 24//25 38//25
f  38//25 24//25 36//26
f  24//25 26//26 36//26
f  26//26 28//27 36//26
f  36//26 28//27 34//28
f  34//28 28//27 32//29
f  32//29 28//27 30//29
f  4//30 59//30 57//31
f  1//31 4//30 57//31
f  5//32 1//31 57//31
f  5//32 57//31 55//32
f  5//32 55//32 53//33
f  7//34 5//32 53//33
f  7//34 53//33 51//35
f  9//36 7//34 51//35
f  9//36 51//35 49//37
f  11//38 9//36 49//37
f  13//39 11//38 49//37
f  13//39 49//37 47//40
f  15//41 13//39 47//40
f  15//41 47//40 45//41
f  15//41 45//41 43//42
f  17//42 15//41 43//42
f  19//43 17//42 43//42
f  19//43 43//42 41//44
f  19//43 41//44 39//45
f  21//46 19//43 39//45
f  23//47 21//46 39//45
f  23//47 39//45 37//47
f  23//47 37//47 35//48
f  25//48 23//47 35//48
f  27//49 25//48 35//48
f  27//49 35//48 33//49
f  27//49 33//49 31//50
f  27//49 31//50 29//50

