# File produced by Open Asset Import Library (http://www.assimp.sf.net)
# (assimp v3.1.187496374)

mtllib flat_tile_left.obj.mtl

# 60 vertex positions
v  6.10352e-05 0.729882 65
v  6.10352e-05 8.72987 65.0001
v  6.48499e-05 10.3334 70.0001
v  6.48499e-05 2.33338 70
v  4.95911e-05 -1.10685 60
v  4.95911e-05 6.89313 60
v  4.57764e-05 -3.0019 55
v  4.57764e-05 4.99809 55
v  4.19617e-05 -4.78032 50
v  4.19617e-05 3.21966 50
v  4.19617e-05 -6.26721 45
v  4.19617e-05 1.73278 45
v  3.43323e-05 -7.28762 40
v  3.43323e-05 0.712367 40
v  2.28882e-05 -7.66663 35
v  2.28882e-05 0.333356 35
v  1.90735e-05 -7.28763 30
v  1.90735e-05 0.712359 30
v  7.62939e-06 -6.26722 25
v  7.62939e-06 1.73276 25
v  3.8147e-06 -4.78035 20
v  3.8147e-06 3.21964 20
v  0 -3.00193 15
v  0 4.99805 15
v  0 -1.1069 9.99998
v  0 6.89309 9.99999
v  -7.62939e-06 0.729833 4.99998
v  -7.62939e-06 8.72982 4.99999
v  -1.90735e-05 2.33332 -1.90735e-05
v  -1.90735e-05 10.3333 -1.14441e-05
v  -80.0001 2.3333 -8.7738e-05
v  -80.0001 10.3333 -8.01086e-05
v  -80.0001 0.729811 4.99991
v  -80.0001 8.7298 4.99992
v  -80 -1.10692 9.99992
v  -80 6.89307 9.99993
v  -80 -3.00195 14.9999
v  -80 4.99803 14.9999
v  -80 -4.78037 19.9999
v  -80 3.21961 19.9999
v  -80 -6.26725 24.9999
v  -80 1.73274 24.9999
v  -80 -7.28765 29.9999
v  -80 0.712336 29.9999
v  -80 -7.66665 34.9999
v  -80 0.333332 34.9999
v  -80 -7.28764 39.9999
v  -80 0.712344 40
v  -80 -6.26723 44.9999
v  -80 1.73275 45
v  -80 -4.78035 50
v  -80 3.21964 50
v  -80 -3.00192 55
v  -80 4.99806 55
v  -80 -1.10688 60
v  -80 6.89311 60
v  -80 0.729858 65
v  -80 8.72984 65
v  -80 2.33336 70
v  -80 10.3333 70

# 0 UV coordinates

# 48 vertex normals
vn 1 2.92435e-07 8.18167e-07
vn 1 2.92434e-07 -1.81834e-07
vn 1 2.92436e-07 1.81817e-06
vn -1.2056e-06 -8.04663e-07 -1
vn -1 -2.92435e-07 -8.18167e-07
vn -1 -2.92434e-07 1.81834e-07
vn -1 -2.92436e-07 -1.81817e-06
vn 1.2056e-06 8.04663e-07 1
vn -3.52202e-07 0.952229 -0.305379
vn -3.76171e-07 0.945654 -0.325169
vn -3.7617e-07 0.945654 -0.325168
vn -4.05791e-07 0.936891 -0.349616
vn -4.03825e-07 0.937495 -0.347993
vn -3.96033e-07 0.939857 -0.341563
vn -3.68121e-07 0.947913 -0.318523
vn -3.47899e-07 0.953361 -0.301825
vn -2.76376e-07 0.970091 -0.242732
vn -1.74874e-07 0.987312 -0.158779
vn -1.24707e-07 0.993101 -0.117248
vn 1.67638e-08 0.999998 9.08971e-07
vn 1.8303e-07 0.990424 0.138046
vn 3.08901e-07 0.970091 0.242734
vn 3.89898e-07 0.950675 0.310188
vn 3.89896e-07 0.950675 0.310187
vn 4.31403e-07 0.938682 0.344782
vn 4.37203e-07 0.936892 0.349618
vn 4.07877e-07 0.945655 0.325171
vn 4.07876e-07 0.945655 0.32517
vn 3.84128e-07 0.952229 0.305381
vn 3.52202e-07 -0.952229 0.305379
vn 3.7617e-07 -0.945654 0.325168
vn 4.05791e-07 -0.936891 0.349616
vn 4.03825e-07 -0.937495 0.347993
vn 3.96033e-07 -0.939857 0.341563
vn 3.6812e-07 -0.947913 0.318522
vn 3.47899e-07 -0.953361 0.301825
vn 2.76376e-07 -0.970091 0.242732
vn 1.74874e-07 -0.987312 0.158779
vn 1.24707e-07 -0.993101 0.117248
vn -1.67638e-08 -0.999998 -9.08971e-07
vn -1.8303e-07 -0.990424 -0.138046
vn -3.08901e-07 -0.970091 -0.242734
vn -3.89898e-07 -0.950675 -0.310188
vn -3.89896e-07 -0.950675 -0.310187
vn -4.31403e-07 -0.938682 -0.344782
vn -4.37203e-07 -0.936892 -0.349618
vn -4.07876e-07 -0.945655 -0.32517
vn -3.84128e-07 -0.952229 -0.305381

# Mesh 'Line01' with 116 faces
g Line01
usemtl $Material_0
f  1//1 2//2 3//3
f  4//3 1//1 3//3
f  1//1 5//2 2//2
f  5//2 6//1 2//2
f  5//2 7//3 6//1
f  7//3 8//1 6//1
f  7//3 9//3 8//1
f  9//3 10//3 8//1
f  9//3 11//3 10//3
f  11//3 12//1 10//3
f  11//3 13//2 12//1
f  13//2 14//2 12//1
f  13//2 15//1 14//2
f  15//1 16//1 14//2
f  15//1 17//1 16//1
f  17//1 18//2 16//1
f  17//1 19//2 18//2
f  19//2 20//1 18//2
f  19//2 21//3 20//1
f  21//3 22//1 20//1
f  21//3 23//3 22//1
f  23//3 24//3 22//1
f  23//3 25//3 24//3
f  25//3 26//1 24//3
f  25//3 27//2 26//1
f  27//2 28//2 26//1
f  27//2 29//2 28//2
f  29//2 30//2 28//2
f  31//4 32//4 30//4
f  29//4 31//4 30//4
f  33//5 34//6 32//7
f  31//7 33//5 32//7
f  33//5 35//6 34//6
f  35//6 36//5 34//6
f  35//6 37//7 36//5
f  37//7 38//5 36//5
f  37//7 39//7 38//5
f  39//7 40//7 38//5
f  39//7 41//7 40//7
f  41//7 42//5 40//7
f  41//7 43//6 42//5
f  43//6 44//6 42//5
f  43//6 45//5 44//6
f  45//5 46//5 44//6
f  45//5 47//5 46//5
f  47//5 48//6 46//5
f  47//5 49//6 48//6
f  49//6 50//5 48//6
f  49//6 51//7 50//5
f  51//7 52//5 50//5
f  51//7 53//7 52//5
f  53//7 54//7 52//5
f  53//7 55//7 54//7
f  55//7 56//5 54//7
f  55//7 57//6 56//5
f  57//6 58//6 56//5
f  57//6 59//6 58//6
f  59//6 60//6 58//6
f  4//8 3//8 60//8
f  59//8 4//8 60//8
f  60//9 3//9 58//10
f  3//9 2//11 58//10
f  2//11 6//12 58//10
f  58//10 6//12 56//12
f  56//12 6//12 54//13
f  6//12 8//14 54//13
f  54//13 8//14 52//15
f  8//14 10//16 52//15
f  52//15 10//16 50//17
f  10//16 12//17 50//17
f  12//17 14//18 50//17
f  50//17 14//18 48//19
f  14//18 16//20 48//19
f  48//19 16//20 46//20
f  46//20 16//20 44//21
f  16//20 18//21 44//21
f  18//21 20//22 44//21
f  44//21 20//22 42//22
f  42//22 20//22 40//23
f  20//22 22//24 40//23
f  22//24 24//25 40//23
f  40//23 24//25 38//25
f  38//25 24//25 36//26
f  24//25 26//26 36//26
f  26//26 28//27 36//26
f  36//26 28//27 34//28
f  34//28 28//27 32//29
f  32//29 28//27 30//29
f  4//30 59//30 57//31
f  1//31 4//30 57//31
f  5//32 1//31 57//31
f  5//32 57//31 55//32
f  5//32 55//32 53//33
f  7//34 5//32 53//33
f  7//34 53//33 51//35
f  9//36 7//34 51//35
f  9//36 51//35 49//37
f  11//37 9//36 49//37
f  13//38 11//37 49//37
f  13//38 49//37 47//39
f  15//40 13//38 47//39
f  15//40 47//39 45//40
f  15//40 45//40 43//41
f  17//41 15//40 43//41
f  19//42 17//41 43//41
f  19//42 43//41 41//42
f  19//42 41//42 39//43
f  21//44 19//42 39//43
f  23//45 21//44 39//43
f  23//45 39//43 37//45
f  23//45 37//45 35//46
f  25//46 23//45 35//46
f  27//47 25//46 35//46
f  27//47 35//46 33//47
f  27//47 33//47 31//48
f  27//47 31//48 29//48

