# File produced by Open Asset Import Library (http://www.assimp.sf.net)
# (assimp v3.1.187496374)

mtllib flat_tile_low_center.obj.mtl

# 60 vertex positions
v  -79.9484 3.39684 -30
v  -79.9484 11.3968 -30
v  -79.9484 13.0003 -34.9999
v  -79.9484 5.00033 -34.9999
v  -79.9484 1.5601 -24.9999
v  -79.9484 9.5601 -24.9999
v  -79.9484 -0.334944 -19.9999
v  -79.9484 7.66506 -19.9999
v  -79.9484 -2.11337 -14.9999
v  -79.9484 5.88663 -14.9999
v  -79.9484 -3.60025 -9.99995
v  -79.9484 4.39975 -9.99995
v  -79.9483 -4.62066 -4.99995
v  -79.9483 3.37934 -4.99995
v  -79.9483 -4.99967 5.46667e-05
v  -79.9483 3.00033 5.46667e-05
v  -79.9483 -4.62066 5.00005
v  -79.9483 3.37934 5.00005
v  -79.9483 -3.60025 10.0001
v  -79.9483 4.39975 10.0001
v  -79.9483 -2.11337 15.0001
v  -79.9483 5.88663 15.0001
v  -79.9483 -0.334945 20.0001
v  -79.9483 7.66506 20.0001
v  -79.9483 1.5601 25.0001
v  -79.9483 9.5601 25.0001
v  -79.9483 3.39684 30.0001
v  -79.9483 11.3968 30.0001
v  -79.9483 5.00033 35.0001
v  -79.9483 13.0003 35.0001
v  0.0516891 5.00033 35
v  0.0516891 13.0003 35
v  0.0516853 3.39684 30
v  0.0516853 11.3968 30
v  0.0516777 1.5601 25
v  0.0516777 9.5601 25
v  0.0516739 -0.334944 20
v  0.0516739 7.66506 20
v  0.0516663 -2.11337 15
v  0.0516663 5.88663 15
v  0.0516701 -3.60025 9.99998
v  0.0516701 4.39975 9.99998
v  0.0516624 -4.62066 4.99997
v  0.0516624 3.37934 4.99997
v  0.0516548 -4.99967 -2.53333e-05
v  0.0516548 3.00033 -2.53333e-05
v  0.051651 -4.62066 -5.00002
v  0.051651 3.37934 -5.00002
v  0.0516396 -3.60025 -10
v  0.0516396 4.39975 -10
v  0.0516396 -2.11337 -15
v  0.0516396 5.88663 -15
v  0.0516319 -0.334945 -20
v  0.0516319 7.66506 -20
v  0.0516319 1.5601 -25
v  0.0516319 9.5601 -25
v  0.0516281 3.39684 -30
v  0.0516281 11.3968 -30
v  0.0516167 5.00033 -35
v  0.0516167 13.0003 -35

# 0 UV coordinates

# 49 vertex normals
vn -1 0 1e-06
vn -1 0 0
vn -1 0 2e-06
vn 1e-06 0 1
vn 1 0 -1e-06
vn 1 0 -2e-06
vn 1 0 0
vn 1 0 -3e-06
vn -1e-06 0 -1
vn 3.0538e-07 0.952231 0.30538
vn 3.25169e-07 0.945656 0.325169
vn 3.49617e-07 0.936893 0.349617
vn 3.47994e-07 0.937497 0.347994
vn 3.41564e-07 0.939858 0.341564
vn 3.18524e-07 0.947915 0.318524
vn 3.01826e-07 0.953363 0.301826
vn 2.42733e-07 0.970093 0.242733
vn 1.5878e-07 0.987314 0.15878
vn 1.17249e-07 0.993103 0.117249
vn 0 1 0
vn -1.38045e-07 0.990426 -0.138045
vn -2.42733e-07 0.970093 -0.242733
vn -3.10187e-07 0.950676 -0.310187
vn -3.10186e-07 0.950676 -0.310186
vn -3.44781e-07 0.938683 -0.344781
vn -3.49617e-07 0.936893 -0.349617
vn -3.25169e-07 0.945656 -0.325169
vn -3.0538e-07 0.952231 -0.30538
vn -3.0538e-07 -0.952231 -0.30538
vn -3.0538e-07 -0.95223 -0.30538
vn -3.2517e-07 -0.945656 -0.32517
vn -3.25169e-07 -0.945656 -0.325169
vn -3.49617e-07 -0.936893 -0.349617
vn -3.47994e-07 -0.937497 -0.347994
vn -3.41564e-07 -0.939858 -0.341564
vn -3.18523e-07 -0.947915 -0.318523
vn -3.01826e-07 -0.953363 -0.301826
vn -2.42733e-07 -0.970093 -0.242733
vn -1.5878e-07 -0.987314 -0.15878
vn -1.17249e-07 -0.993103 -0.117249
vn 0 -1 0
vn 1.38045e-07 -0.990426 0.138045
vn 2.42733e-07 -0.970093 0.242733
vn 3.10187e-07 -0.950676 0.310187
vn 3.10186e-07 -0.950676 0.310186
vn 3.44781e-07 -0.938683 0.344781
vn 3.49617e-07 -0.936893 0.349617
vn 3.25169e-07 -0.945656 0.325169
vn 3.0538e-07 -0.952231 0.30538

# Mesh 'Line0111' with 116 faces
g Line0111
usemtl Material
f  1//1 2//1 3//1
f  4//1 1//1 3//1
f  1//1 5//1 2//1
f  5//1 6//1 2//1
f  5//1 7//1 6//1
f  7//1 8//1 6//1
f  7//1 9//2 8//1
f  9//2 10//2 8//1
f  9//2 11//2 10//2
f  11//2 12//2 10//2
f  11//2 13//1 12//2
f  13//1 14//1 12//2
f  13//1 15//1 14//1
f  15//1 16//1 14//1
f  15//1 17//3 16//1
f  17//3 18//3 16//1
f  17//3 19//3 18//3
f  19//3 20//2 18//3
f  19//3 21//2 20//2
f  21//2 22//2 20//2
f  21//2 23//1 22//2
f  23//1 24//1 22//2
f  23//1 25//1 24//1
f  25//1 26//1 24//1
f  25//1 27//1 26//1
f  27//1 28//1 26//1
f  27//1 29//1 28//1
f  29//1 30//1 28//1
f  31//4 32//4 30//4
f  29//4 31//4 30//4
f  33//5 34//6 32//5
f  31//5 33//5 32//5
f  33//5 35//5 34//6
f  35//5 36//5 34//6
f  35//5 37//5 36//5
f  37//5 38//5 36//5
f  37//5 39//5 38//5
f  39//5 40//7 38//5
f  39//5 41//7 40//7
f  41//7 42//7 40//7
f  41//7 43//5 42//7
f  43//5 44//6 42//7
f  43//5 45//6 44//6
f  45//6 46//5 44//6
f  45//6 47//5 46//5
f  47//5 48//6 46//5
f  47//5 49//5 48//6
f  49//5 50//5 48//6
f  49//5 51//5 50//5
f  51//5 52//5 50//5
f  51//5 53//5 52//5
f  53//5 54//7 52//5
f  53//5 55//7 54//7
f  55//7 56//7 54//7
f  55//7 57//6 56//7
f  57//6 58//6 56//7
f  57//6 59//8 58//6
f  59//8 60//8 58//6
f  4//9 3//9 60//9
f  59//9 4//9 60//9
f  60//10 3//10 58//11
f  3//10 2//11 58//11
f  2//11 6//12 58//11
f  58//11 6//12 56//12
f  56//12 6//12 54//13
f  6//12 8//14 54//13
f  54//13 8//14 52//15
f  8//14 10//16 52//15
f  52//15 10//16 50//17
f  10//16 12//17 50//17
f  12//17 14//18 50//17
f  50//17 14//18 48//19
f  14//18 16//20 48//19
f  48//19 16//20 46//20
f  46//20 16//20 44//21
f  16//20 18//21 44//21
f  18//21 20//22 44//21
f  44//21 20//22 42//22
f  42//22 20//22 40//23
f  20//22 22//24 40//23
f  22//24 24//25 40//23
f  40//23 24//25 38//25
f  38//25 24//25 36//26
f  24//25 26//26 36//26
f  26//26 28//27 36//26
f  36//26 28//27 34//27
f  34//27 28//27 32//28
f  32//28 28//27 30//28
f  4//29 59//30 57//31
f  1//32 4//29 57//31
f  5//33 1//32 57//31
f  5//33 57//31 55//33
f  5//33 55//33 53//34
f  7//35 5//33 53//34
f  7//35 53//34 51//36
f  9//37 7//35 51//36
f  9//37 51//36 49//38
f  11//38 9//37 49//38
f  13//39 11//38 49//38
f  13//39 49//38 47//40
f  15//41 13//39 47//40
f  15//41 47//40 45//41
f  15//41 45//41 43//42
f  17//42 15//41 43//42
f  19//43 17//42 43//42
f  19//43 43//42 41//43
f  19//43 41//43 39//44
f  21//45 19//43 39//44
f  23//46 21//45 39//44
f  23//46 39//44 37//46
f  23//46 37//46 35//47
f  25//47 23//46 35//47
f  27//48 25//47 35//47
f  27//48 35//47 33//48
f  27//48 33//48 31//49
f  27//48 31//49 29//49

