# File produced by Open Asset Import Library (http://www.assimp.sf.net)
# (assimp v3.1.187496374)

mtllib flat_tile_left_end.obj.mtl

# 91 vertex positions
v  -1.52588e-05 5.72983 65
v  -1.52588e-05 13.7298 65
v  -2.28882e-05 15.3333 70
v  -2.28882e-05 7.33333 70
v  -2.28882e-05 3.8931 60
v  -2.28882e-05 11.8931 60
v  -2.28882e-05 1.99805 55
v  -2.28882e-05 9.99805 55
v  -2.28882e-05 0.21963 50
v  -2.28882e-05 8.21963 50
v  -7.62939e-06 -1.26725 45
v  -7.62939e-06 6.73275 45
v  -1.52588e-05 -2.28766 40
v  -1.52588e-05 5.71234 40
v  -2.28882e-05 -2.66667 35
v  -2.28882e-05 5.33333 35
v  -1.52588e-05 -2.28766 30
v  -1.52588e-05 5.71234 30
v  -2.28882e-05 -1.26725 25
v  -2.28882e-05 6.73275 25
v  -2.28882e-05 0.219629 20
v  -2.28882e-05 8.21963 20
v  -2.28882e-05 1.99805 15
v  -2.28882e-05 9.99805 15
v  -1.52588e-05 3.8931 9.99999
v  -1.52588e-05 11.8931 9.99999
v  -1.52588e-05 5.72983 4.99999
v  -1.52588e-05 13.7298 4.99999
v  -2.28882e-05 7.33333 -7.62939e-06
v  -2.28882e-05 15.3333 -7.62939e-06
v  -80 7.33333 7.62939e-06
v  -80 15.3333 7.62939e-06
v  -80 14.8462 0.434677
v  -80 10.8462 0.434677
v  -77.3925 6.46188 2.71734
v  -0.536148 15.3333 70
v  -0.536148 11.3501 70
v  -0.536148 7.36014 70
v  -8.70487 12.9396 62.8488
v  -3.41248 14.5258 67.4819
v  -11.5606 12.0212 60.3488
v  -12.4188 11.7406 59.5975
v  -15.2745 10.793 57.0975
v  -18.3498 9.78654 54.4053
v  -21.2055 8.89733 51.9053
v  -24.2808 7.98563 49.2131
v  -27.1365 7.24219 46.7131
v  -30.7895 6.42972 43.5152
v  -33.6453 5.91952 41.0152
v  -36.3107 5.61242 38.6818
v  -39.1664 5.42291 36.1818
v  -42.0738 5.43669 33.6365
v  -44.9296 5.62619 31.1365
v  -47.353 5.91337 29.0149
v  -50.2087 6.42357 26.5149
v  -53.9358 7.25253 23.2521
v  -56.7916 7.99597 20.7521
v  -58.3953 8.45149 19.3481
v  -61.2511 9.3407 16.8481
v  -65.7979 10.8062 12.8677
v  -68.6536 11.7537 10.3677
v  -69.4377 12.0102 9.6813
v  -69.8237 12.1343 9.34335
v  -77.3925 14.4619 2.71734
v  -72.3154 12.9356 7.16205
v  -0.553246 7.32853 69.985
v  -3.41074 6.52628 67.4835
v  -8.70487 4.9396 62.8488
v  -11.5606 4.02124 60.3488
v  -12.4188 3.74057 59.5975
v  -15.2745 2.79304 57.0975
v  -18.3498 1.78654 54.4053
v  -21.2055 0.897332 51.9053
v  -24.2808 -0.0143652 49.2131
v  -27.1365 -0.757805 46.7131
v  -30.7895 -1.57028 43.5152
v  -33.6453 -2.08048 41.0152
v  -36.3107 -2.38759 38.6818
v  -39.1664 -2.57709 36.1818
v  -42.0738 -2.56331 33.6365
v  -44.9296 -2.37381 31.1365
v  -47.353 -2.08663 29.0149
v  -50.2087 -1.57643 26.5149
v  -53.9359 -0.747472 23.2521
v  -56.7916 -0.00403023 20.7521
v  -58.3953 0.451493 19.3481
v  -61.2499 1.34732 16.8492
v  -65.7933 2.83157 12.8717
v  -68.6536 3.75374 10.3677
v  -69.4377 4.01017 9.6813
v  -72.2934 4.92854 7.1813

# 0 UV coordinates

# 107 vertex normals
vn 1 0 0
vn 1 0 -7.15256e-07
vn 1 0 6.85453e-07
vn 0.999999 0 -1.37091e-06
vn 1 0 1.43051e-06
vn 0 0 -1
vn -1 0 -1.43051e-06
vn -0.970315 -0.029699 0.240014
vn -0.930666 -0.04493 0.3631
vn -0.732278 -0.083629 0.67585
vn 2.14577e-06 0 1
vn -0.00272213 0.946749 -0.321962
vn -0.00272192 0.942181 -0.335093
vn -0.0027218 0.951133 -0.308769
vn -7.30157e-07 0.952231 -0.30538
vn -3.37213e-05 0.936879 -0.349653
vn -8.55476e-05 0.937751 -0.347307
vn -8.52048e-05 0.935961 -0.352104
vn 0.000191122 0.935551 -0.353192
vn 0.000143036 0.939019 -0.343866
vn 0.000286743 0.939353 -0.34295
vn 0.000437856 0.943706 -0.330785
vn 0.00032936 0.951739 -0.306908
vn 0.000657901 0.952791 -0.303626
vn 0.000824049 0.962005 -0.273032
vn 0.000824273 0.969577 -0.244786
vn 0.000823699 0.97632 -0.216329
vn 0.000524364 0.988335 -0.152296
vn 0.00104816 0.986042 -0.166495
vn 0.000698574 0.995505 -0.0947042
vn 0.000475401 1 0.000542442
vn 0.00118494 0.999334 -0.0364672
vn 0.00118586 0.999232 0.0391713
vn 0.000483941 0.995516 0.0945937
vn 0.000484928 0.990682 0.136198
vn 0.000483908 0.984108 0.177569
vn 0.000283264 0.969993 0.243131
vn 0.000706881 0.974956 0.222398
vn 0.000706881 0.964265 0.264937
vn 0.000111997 0.956173 0.292801
vn 0.000111669 0.950884 0.309547
vn 0.000111997 0.945302 0.326196
vn 6.80834e-05 0.938655 0.344857
vn 0.000171036 0.940373 0.340144
vn 0.000171021 0.936829 0.349789
vn -8.86619e-06 0.935647 0.352938
vn -8.43406e-06 0.936845 0.349744
vn -8.9854e-06 0.938033 0.346545
vn -0.00427319 0.927184 0.374582
vn 3.72529e-07 0.938669 0.344819
vn -0.0152158 0.876596 0.480986
vn 0.00197445 0.969757 0.244064
vn -0.0172434 0.838404 0.544776
vn -1.49012e-08 0.952231 0.305379
vn -0.000327244 0.942165 0.335149
vn -0.0114372 -0.748858 0.662632
vn -0.0209401 -0.418838 0.907819
vn -0.00754359 -0.837028 0.547108
vn 0.00875062 -0.945107 0.326644
vn 0.0106256 -0.947842 0.318565
vn 0.00528434 -0.938696 0.344704
vn -0.00281061 -0.941416 0.337238
vn 8.56668e-05 -0.937751 0.347309
vn 5.69075e-05 -0.935671 0.352872
vn -0.00014317 -0.93724 0.348686
vn -0.000286087 -0.93578 0.352584
vn -0.00019072 -0.940302 0.340342
vn -0.000328273 -0.947614 0.319418
vn -0.000657067 -0.944464 0.328615
vn -0.000438601 -0.95474 0.297442
vn -0.00192535 -0.966436 0.256899
vn -0.0002909 -0.970239 0.242147
vn -0.00118531 -0.983762 0.179474
vn 0.00244992 -0.97538 0.220516
vn 0.000390738 -0.99103 0.133638
vn -0.000239916 -0.999214 0.0396416
vn 0.00251649 -0.99496 0.100239
vn -0.00118494 -0.999334 0.0364672
vn -0.000790318 -0.998682 -0.0513222
vn -0.00106173 -0.993102 -0.117248
vn 0.000694029 -0.990333 -0.138709
vn 0.000133917 -0.976788 -0.21421
vn 0.00263086 -0.985427 -0.170076
vn -0.000706881 -0.974956 -0.222398
vn -0.000471175 -0.962395 -0.271652
vn -0.000242993 -0.953363 -0.301825
vn 0.000437155 -0.950618 -0.310363
vn 3.27826e-05 -0.941378 -0.337353
vn 0.00092791 -0.946048 -0.324026
vn -0.000381291 -0.939277 -0.34316
vn -0.000303701 -0.936863 -0.349695
vn -8.99285e-05 -0.937387 -0.348291
vn -8.5339e-05 -0.937982 -0.346685
vn 5.82784e-05 -0.944219 -0.329319
vn -0.000183314 -0.937787 -0.347211
vn 0.000329241 -0.942149 -0.335194
vn 0.000328645 -0.948934 -0.315475
vn -7.45058e-08 -0.952231 -0.305381
vn 1.49012e-08 -0.952231 -0.305379
vn -0.658689 0 0.752415
vn 0 1 0
vn -0.658689 1e-06 0.752415
vn -0.658691 -2.2e-05 0.752414
vn -0.658689 2e-06 0.752415
vn -0.658693 -5.3e-05 0.752412
vn -0.658691 -1.6e-05 0.752414
vn -0.658688 0 0.752416

# Mesh 'Box01' with 178 faces
g Box01
usemtl $Material_0
f  1//1 2//2 3//3
f  4//3 1//1 3//3
f  1//1 5//4 2//2
f  5//4 6//2 2//2
f  5//4 7//1 6//2
f  7//1 8//1 6//2
f  7//1 9//5 8//1
f  9//5 10//5 8//1
f  9//5 11//3 10//5
f  11//3 12//1 10//5
f  11//3 13//2 12//1
f  13//2 14//4 12//1
f  13//2 15//2 14//4
f  15//2 16//1 14//4
f  15//2 17//1 16//1
f  17//1 18//2 16//1
f  17//1 19//2 18//2
f  19//2 20//1 18//2
f  19//2 21//1 20//1
f  21//1 22//1 20//1
f  21//1 23//1 22//1
f  23//1 24//3 22//1
f  23//1 25//3 24//3
f  25//3 26//1 24//3
f  25//3 27//2 26//1
f  27//2 28//1 26//1
f  27//2 29//1 28//1
f  29//1 30//1 28//1
f  31//6 32//6 30//6
f  29//6 31//6 30//6
f  33//7 32//7 34//8
f  34//8 32//7 31//9
f  31//9 35//10 34//8
f  3//11 36//11 37//11
f  37//11 4//11 3//11
f  38//11 4//11 37//11
f  2//12 39//13 40//14
f  40//14 3//15 2//12
f  36//15 3//15 40//14
f  39//13 2//12 6//16
f  6//16 41//17 39//13
f  42//18 6//16 43//19
f  43//19 6//16 8//20
f  41//17 6//16 42//18
f  8//20 44//21 43//19
f  45//22 8//20 10//23
f  44//21 8//20 45//22
f  10//23 46//24 45//22
f  47//25 10//23 12//26
f  46//24 10//23 47//25
f  12//26 48//27 47//25
f  48//27 12//26 14//28
f  14//28 49//29 48//27
f  50//30 14//28 16//31
f  49//29 14//28 50//30
f  16//31 51//32 50//30
f  52//33 16//31 53//34
f  53//34 16//31 18//35
f  51//32 16//31 52//33
f  18//35 54//36 53//34
f  54//36 18//35 20//37
f  20//37 55//38 54//36
f  56//39 20//37 57//40
f  57//40 20//37 22//41
f  55//38 20//37 56//39
f  22//41 58//42 57//40
f  58//42 22//41 24//43
f  24//43 59//44 58//42
f  60//45 24//43 61//46
f  61//46 24//43 26//47
f  59//44 24//43 60//45
f  26//47 62//48 61//46
f  62//48 26//47 28//49
f  28//49 63//50 62//48
f  33//51 64//52 28//49
f  28//49 32//53 33//51
f  32//53 28//49 30//54
f  28//49 64//52 65//55
f  65//55 63//50 28//49
f  4//56 38//57 66//58
f  66//58 67//59 1//60
f  1//60 4//56 66//58
f  5//61 1//60 67//59
f  67//59 68//62 5//61
f  5//61 68//62 69//63
f  5//61 69//63 70//64
f  7//65 5//61 70//64
f  70//64 71//66 7//65
f  7//65 71//66 72//67
f  9//68 7//65 72//67
f  72//67 73//69 9//68
f  9//68 73//69 74//70
f  11//71 9//68 74//70
f  74//70 75//72 11//71
f  13//73 11//71 75//72
f  75//72 76//74 13//73
f  13//73 76//74 77//75
f  15//76 13//73 77//75
f  77//75 78//77 15//76
f  15//76 78//77 79//78
f  15//76 79//78 80//79
f  17//80 15//76 80//79
f  80//79 81//81 17//80
f  19//82 17//80 81//81
f  81//81 82//83 19//82
f  19//82 82//83 83//84
f  19//82 83//84 84//85
f  21//86 19//82 84//85
f  84//85 85//87 21//86
f  23//88 21//86 85//87
f  85//87 86//89 23//88
f  23//88 86//89 87//90
f  23//88 87//90 88//91
f  25//92 23//88 88//91
f  88//91 89//93 25//92
f  27//94 25//92 89//93
f  89//93 90//95 27//94
f  27//94 90//95 91//96
f  35//97 31//98 27//94
f  27//94 91//96 35//97
f  27//94 31//98 29//99
f  48//100 49//100 73//100
f  47//100 48//100 73//100
f  47//100 73//100 72//100
f  49//100 74//100 73//100
f  49//100 50//100 74//100
f  74//100 53//100 34//100
f  75//100 74//100 34//100
f  50//100 51//100 74//100
f  52//100 53//100 74//100
f  74//100 51//100 52//100
f  53//100 54//101 34//100
f  54//101 55//100 34//100
f  55//100 56//100 34//100
f  56//100 57//100 34//100
f  57//100 58//101 33//100
f  57//100 33//100 34//100
f  58//101 59//100 33//100
f  59//100 60//100 33//100
f  60//100 61//100 33//100
f  65//100 64//100 33//100
f  63//100 65//100 33//100
f  62//100 63//100 33//100
f  61//100 62//100 33//100
f  76//100 75//100 34//100
f  77//100 76//100 34//100
f  80//100 77//100 34//100
f  81//100 80//100 34//100
f  81//100 34//100 35//100
f  79//100 78//100 77//100
f  80//100 79//100 77//100
f  82//100 81//100 35//100
f  83//100 82//100 35//100
f  83//100 35//100 91//100
f  84//100 83//100 91//100
f  84//100 91//100 90//100
f  89//100 85//100 84//100
f  89//100 84//100 90//100
f  89//100 88//100 85//100
f  87//100 86//100 85//100
f  88//100 87//100 85//100
f  47//100 72//100 71//100
f  46//100 47//100 71//100
f  45//100 46//100 71//100
f  45//100 71//100 70//100
f  45//100 70//100 69//102
f  45//100 69//102 68//100
f  44//103 45//100 68//100
f  44//103 68//100 67//104
f  44//103 67//104 66//105
f  44//103 66//105 38//106
f  43//100 44//103 38//106
f  42//100 43//100 38//106
f  41//102 42//100 38//106
f  39//100 41//102 38//106
f  40//100 39//100 38//106
f  40//100 38//106 37//107
f  36//107 40//100 37//107

