# File produced by Open Asset Import Library (http://www.assimp.sf.net)
# (assimp v3.1.187496374)

mtllib flat_tile_right_-.obj.mtl

# 60 vertex positions
v  -0.008022 3.58105 -5.00001
v  0.001419 11.581 -5.00001
v  0.003311 13.1845 -1.5e-05
v  -0.006142 5.18455 -1.5e-05
v  -0.010208 1.74432 -10
v  -0.000748 9.74431 -10
v  -0.01244 -0.150725 -15
v  -0.002991 7.84927 -15
v  -0.014542 -1.92915 -20
v  -0.005085 6.07084 -20
v  -0.016293 -3.41603 -25
v  -0.00684 4.58396 -25
v  -0.01749 -4.43644 -30
v  -0.008049 3.56355 -30
v  -0.017952 -4.81544 -35
v  -0.008492 3.18454 -35
v  -0.017498 -4.43644 -40
v  -0.008045 3.56355 -40
v  -0.016293 -3.41603 -45
v  -0.006847 4.58396 -45
v  -0.014534 -1.92915 -50
v  -0.005085 6.07084 -50
v  -0.01244 -0.150733 -55
v  -0.002987 7.84926 -55
v  -0.010189 1.74431 -60
v  -0.000736 9.7443 -60
v  -0.008026 3.58104 -65
v  0.001434 11.581 -65
v  -0.006134 5.18454 -70
v  0.003319 13.1845 -70
v  -80.006 5.27905 -70
v  -79.9966 13.279 -70
v  -80.0079 3.67556 -65
v  -79.9985 11.6756 -65
v  -80.0101 1.83883 -60
v  -80.0006 9.83882 -60
v  -80.0123 -0.056213 -55
v  -80.0029 7.94378 -55
v  -80.0144 -1.83464 -50
v  -80.005 6.16535 -50
v  -80.0162 -3.32151 -45
v  -80.0068 4.67847 -45
v  -80.0174 -4.34192 -40
v  -80.008 3.65807 -40
v  -80.0179 -4.72093 -35
v  -80.0084 3.27906 -35
v  -80.0174 -4.34192 -30
v  -80.0079 3.65807 -30
v  -80.0162 -3.32151 -25
v  -80.0067 4.67848 -25
v  -80.0145 -1.83463 -20
v  -80.005 6.16536 -20
v  -80.0123 -0.056206 -15
v  -80.0029 7.94378 -15
v  -80.0101 1.83884 -10
v  -80.0007 9.83883 -10
v  -80.0079 3.67557 -5.00001
v  -79.9985 11.6756 -5.00001
v  -80.006 5.27907 -1.5e-05
v  -79.9966 13.2791 -1.5e-05

# 0 UV coordinates

# 58 vertex normals
vn 0.999999 -0.001181 0
vn 0.999999 -0.001181 -1e-06
vn 0.999999 -0.001181 1e-06
vn 0.999999 -0.001182 3e-06
vn 0.999999 -0.001182 0
vn 0.999999 -0.001182 1e-06
vn 0.999999 -0.001182 -1e-06
vn 0.999999 -0.001182 -2e-06
vn 0 0 -1
vn -0.999999 0.001182 0
vn -0.999999 0.001183 1e-06
vn -0.999999 0.001182 -1e-06
vn -0.999999 0.001181 -3e-06
vn -0.999999 0.001183 0
vn -0.999999 0.001181 -1e-06
vn -0.999999 0.001181 -2e-06
vn -0.999999 0.001181 0
vn -0.999999 0.001181 2e-06
vn -0.999999 0.001182 1e-06
vn 0 0 1
vn 0.001125 0.95223 -0.30538
vn 0.001117 0.945655 -0.325169
vn 0.001107 0.936892 -0.349617
vn 0.001108 0.937496 -0.347994
vn 0.00111 0.939858 -0.341564
vn 0.00112 0.947914 -0.318523
vn 0.001126 0.953362 -0.301826
vn 0.001146 0.970092 -0.242733
vn 0.001166 0.987313 -0.15878
vn 0.001173 0.993102 -0.117249
vn 0.001181 0.999999 0
vn 0.00117 0.990425 0.138044
vn 0.00117 0.990425 0.138045
vn 0.001146 0.970092 0.242733
vn 0.001123 0.950675 0.310186
vn 0.001109 0.938683 0.344781
vn 0.001107 0.936892 0.349617
vn 0.001117 0.945655 0.325169
vn 0.001125 0.95223 0.30538
vn -0.001125 -0.95223 0.30538
vn -0.001117 -0.945655 0.325169
vn -0.001107 -0.936892 0.349617
vn -0.001108 -0.937496 0.347994
vn -0.00111 -0.939858 0.341564
vn -0.00112 -0.947914 0.318524
vn -0.001126 -0.953362 0.301826
vn -0.001146 -0.970092 0.242733
vn -0.001167 -0.987313 0.15878
vn -0.001173 -0.993102 0.117249
vn -0.001181 -0.999999 0
vn -0.00117 -0.990425 -0.138044
vn -0.00117 -0.990425 -0.138045
vn -0.001146 -0.970092 -0.242733
vn -0.001123 -0.950675 -0.310186
vn -0.001109 -0.938683 -0.344781
vn -0.001107 -0.936892 -0.349617
vn -0.001117 -0.945655 -0.325169
vn -0.001125 -0.95223 -0.305379

# Mesh 'Line011' with 116 faces
g Line011
usemtl $Material_0
f  1//1 2//2 3//3
f  4//4 1//1 3//3
f  1//1 5//5 2//2
f  5//5 6//6 2//2
f  5//5 7//5 6//6
f  7//5 8//1 6//6
f  7//5 9//6 8//1
f  9//6 10//6 8//1
f  9//6 11//6 10//6
f  11//6 12//1 10//6
f  11//6 13//2 12//1
f  13//2 14//2 12//1
f  13//2 15//5 14//2
f  15//5 16//6 14//2
f  15//5 17//5 16//6
f  17//5 18//2 16//6
f  17//5 19//1 18//2
f  19//1 20//1 18//2
f  19//1 21//1 20//1
f  21//1 22//1 20//1
f  21//1 23//1 22//1
f  23//1 24//6 22//1
f  23//1 25//6 24//6
f  25//6 26//5 24//6
f  25//6 27//7 26//5
f  27//7 28//7 26//5
f  27//7 29//7 28//7
f  29//7 30//8 28//7
f  31//9 32//9 30//9
f  29//9 31//9 30//9
f  33//10 34//11 32//12
f  31//13 33//10 32//12
f  33//10 35//11 34//11
f  35//11 36//14 34//11
f  35//11 37//11 36//14
f  37//11 38//10 36//14
f  37//11 39//15 38//10
f  39//15 40//16 38//10
f  39//15 41//16 40//16
f  41//16 42//15 40//16
f  41//16 43//17 42//15
f  43//17 44//18 42//15
f  43//17 45//19 44//18
f  45//19 46//11 44//18
f  45//19 47//14 46//11
f  47//14 48//19 46//11
f  47//14 49//17 48//19
f  49//17 50//15 48//19
f  49//17 51//12 50//15
f  51//12 52//12 50//15
f  51//12 53//15 52//12
f  53//15 54//15 52//12
f  53//15 55//10 54//15
f  55//10 56//19 54//15
f  55//10 57//17 56//19
f  57//17 58//17 56//19
f  57//17 59//17 58//17
f  59//17 60//17 58//17
f  4//20 3//20 60//20
f  59//20 4//20 60//20
f  60//21 3//21 58//22
f  3//21 2//22 58//22
f  2//22 6//23 58//22
f  58//22 6//23 56//23
f  56//23 6//23 54//24
f  6//23 8//25 54//24
f  54//24 8//25 52//26
f  8//25 10//27 52//26
f  52//26 10//27 50//28
f  10//27 12//28 50//28
f  12//28 14//29 50//28
f  50//28 14//29 48//30
f  14//29 16//31 48//30
f  48//30 16//31 46//31
f  46//31 16//31 44//32
f  16//31 18//33 44//32
f  18//33 20//34 44//32
f  44//32 20//34 42//34
f  42//34 20//34 40//35
f  20//34 22//35 40//35
f  22//35 24//36 40//35
f  40//35 24//36 38//36
f  38//36 24//36 36//37
f  24//36 26//37 36//37
f  26//37 28//38 36//37
f  36//37 28//38 34//38
f  34//38 28//38 32//39
f  32//39 28//38 30//39
f  4//40 59//40 57//41
f  1//41 4//40 57//41
f  5//42 1//41 57//41
f  5//42 57//41 55//42
f  5//42 55//42 53//43
f  7//44 5//42 53//43
f  7//44 53//43 51//45
f  9//46 7//44 51//45
f  9//46 51//45 49//47
f  11//47 9//46 49//47
f  13//48 11//47 49//47
f  13//48 49//47 47//49
f  15//50 13//48 47//49
f  15//50 47//49 45//50
f  15//50 45//50 43//51
f  17//52 15//50 43//51
f  19//53 17//52 43//51
f  19//53 43//51 41//53
f  19//53 41//53 39//54
f  21//54 19//53 39//54
f  23//55 21//54 39//54
f  23//55 39//54 37//55
f  23//55 37//55 35//56
f  25//56 23//55 35//56
f  27//57 25//56 35//56
f  27//57 35//56 33//57
f  27//57 33//57 31//58
f  27//57 31//58 29//58

