# File produced by Open Asset Import Library (http://www.assimp.sf.net)
# (assimp v3.1.187496374)

mtllib Hflat_tile_right.obj.mtl

# 60 vertex positions
v  -2.67029e-05 5.15254 -65
v  -3.05176e-05 -2.84746 -65
v  -3.43323e-05 -4.45095 -70
v  -3.43323e-05 3.54905 -70
v  -3.8147e-05 6.98928 -60
v  -3.43323e-05 -1.01072 -60
v  -3.05176e-05 8.88433 -55
v  -3.43323e-05 0.884324 -55
v  -3.43323e-05 10.6628 -50
v  -3.05176e-05 2.66275 -50
v  -2.67029e-05 12.1496 -45
v  -2.67029e-05 4.14963 -45
v  -2.67029e-05 13.17 -40
v  -3.05176e-05 5.17004 -40
v  -3.43323e-05 13.549 -35
v  -3.05176e-05 5.54905 -35
v  -3.05176e-05 13.17 -30
v  -2.67029e-05 5.17004 -30
v  -3.43323e-05 12.1496 -25
v  -3.8147e-05 4.14963 -25
v  -3.05176e-05 10.6628 -20
v  -3.43323e-05 2.66275 -20
v  -3.43323e-05 8.88433 -15
v  -3.43323e-05 0.884325 -15
v  -2.67029e-05 6.98928 -10
v  -2.28882e-05 -1.01072 -10
v  -3.05176e-05 5.15255 -5.00001
v  -2.67029e-05 -2.84746 -5.00001
v  -3.43323e-05 3.54905 -1.14441e-05
v  -3.43323e-05 -4.45095 -1.14441e-05
v  -80 3.54905 -1.14441e-05
v  -80 -4.45095 -1.14441e-05
v  -80 5.15254 -5.00001
v  -80 -2.84746 -5.00001
v  -80 6.98928 -10
v  -80 -1.01072 -10
v  -80 8.88433 -15
v  -80 0.884324 -15
v  -80 10.6628 -20
v  -80 2.66275 -20
v  -80 12.1496 -25
v  -80 4.14963 -25
v  -80 13.17 -30
v  -80 5.17004 -30
v  -80 13.549 -35
v  -80 5.54905 -35
v  -80 13.17 -40
v  -80 5.17004 -40
v  -80 12.1496 -45
v  -80 4.14963 -45
v  -80 10.6628 -50
v  -80 2.66275 -50
v  -80 8.88433 -55
v  -80 0.884325 -55
v  -80 6.98928 -60
v  -80 -1.01072 -60
v  -80 5.15255 -65
v  -80 -2.84746 -65
v  -80 3.54905 -70
v  -80 -4.45095 -70

# 0 UV coordinates

# 50 vertex normals
vn 1 0 0
vn 1 0 1e-06
vn 1 -0 -1e-06
vn 1 0 -2e-06
vn 1 0 2e-06
vn 0 0 1
vn -1 0 0
vn -1 0 -1e-06
vn -1 0 1e-06
vn -0 0 -1
vn 0 -0.952231 0.30538
vn 0 -0.945656 0.32517
vn 0 -0.945656 0.325169
vn 0 -0.936893 0.349617
vn 0 -0.937497 0.347994
vn 0 -0.939859 0.341564
vn 0 -0.947915 0.318524
vn 0 -0.953363 0.301826
vn 0 -0.970093 0.242733
vn 0 -0.987314 0.15878
vn 0 -0.993103 0.117249
vn 0 -1 0
vn 0 -0.990426 -0.138045
vn 0 -0.970093 -0.242733
vn 0 -0.950676 -0.310187
vn 0 -0.950676 -0.310186
vn 0 -0.938683 -0.344781
vn 0 -0.936893 -0.349617
vn 0 -0.945656 -0.32517
vn 0 -0.945656 -0.325169
vn 0 -0.952231 -0.30538
vn 0 0.952231 -0.30538
vn 0 0.945656 -0.325169
vn 0 0.936893 -0.349617
vn 0 0.937497 -0.347994
vn 0 0.939859 -0.341564
vn 0 0.947915 -0.318523
vn -0 0.953363 -0.301826
vn -0 0.970093 -0.242733
vn -0 0.987314 -0.15878
vn -0 0.993103 -0.117249
vn 0 1 0
vn 0 0.990426 0.138045
vn 0 0.970093 0.242733
vn 0 0.950676 0.310187
vn 0 0.950676 0.310186
vn 0 0.938683 0.344781
vn 0 0.936893 0.349617
vn 0 0.945656 0.325169
vn 0 0.952231 0.30538

# Mesh 'Line01' with 116 faces
g Line01
usemtl $Material_0
f  1//1 2//2 3//3
f  4//4 1//1 3//3
f  1//1 5//1 2//2
f  5//1 6//1 2//2
f  5//1 7//1 6//1
f  7//1 8//1 6//1
f  7//1 9//3 8//1
f  9//3 10//3 8//1
f  9//3 11//3 10//3
f  11//3 12//1 10//3
f  11//3 13//2 12//1
f  13//2 14//2 12//1
f  13//2 15//1 14//2
f  15//1 16//1 14//2
f  15//1 17//1 16//1
f  17//1 18//2 16//1
f  17//1 19//2 18//2
f  19//2 20//1 18//2
f  19//2 21//1 20//1
f  21//1 22//1 20//1
f  21//1 23//1 22//1
f  23//1 24//3 22//1
f  23//1 25//3 24//3
f  25//3 26//1 24//3
f  25//3 27//2 26//1
f  27//2 28//2 26//1
f  27//2 29//2 28//2
f  29//2 30//5 28//2
f  31//6 32//6 30//6
f  29//6 31//6 30//6
f  33//7 34//8 32//7
f  31//9 33//7 32//7
f  33//7 35//8 34//8
f  35//8 36//7 34//8
f  35//8 37//7 36//7
f  37//7 38//7 36//7
f  37//7 39//7 38//7
f  39//7 40//9 38//7
f  39//7 41//9 40//9
f  41//9 42//7 40//9
f  41//9 43//8 42//7
f  43//8 44//8 42//7
f  43//8 45//7 44//8
f  45//7 46//7 44//8
f  45//7 47//7 46//7
f  47//7 48//8 46//7
f  47//7 49//7 48//8
f  49//7 50//7 48//8
f  49//7 51//7 50//7
f  51//7 52//7 50//7
f  51//7 53//9 52//7
f  53//9 54//9 52//7
f  53//9 55//9 54//9
f  55//9 56//7 54//9
f  55//9 57//8 56//7
f  57//8 58//8 56//7
f  57//8 59//7 58//8
f  59//7 60//7 58//8
f  4//10 3//10 60//10
f  59//10 4//10 60//10
f  60//11 3//11 58//12
f  3//11 2//13 58//12
f  2//13 6//14 58//12
f  58//12 6//14 56//14
f  56//14 6//14 54//15
f  6//14 8//16 54//15
f  54//15 8//16 52//17
f  8//16 10//18 52//17
f  52//17 10//18 50//19
f  10//18 12//19 50//19
f  12//19 14//20 50//19
f  50//19 14//20 48//21
f  14//20 16//22 48//21
f  48//21 16//22 46//22
f  46//22 16//22 44//23
f  16//22 18//23 44//23
f  18//23 20//24 44//23
f  44//23 20//24 42//24
f  42//24 20//24 40//25
f  20//24 22//26 40//25
f  22//26 24//27 40//25
f  40//25 24//27 38//27
f  38//27 24//27 36//28
f  24//27 26//28 36//28
f  26//28 28//29 36//28
f  36//28 28//29 34//30
f  34//30 28//29 32//31
f  32//31 28//29 30//31
f  4//32 59//32 57//33
f  1//33 4//32 57//33
f  5//34 1//33 57//33
f  5//34 57//33 55//34
f  5//34 55//34 53//35
f  7//36 5//34 53//35
f  7//36 53//35 51//37
f  9//38 7//36 51//37
f  9//38 51//37 49//39
f  11//39 9//38 49//39
f  13//40 11//39 49//39
f  13//40 49//39 47//41
f  15//42 13//40 47//41
f  15//42 47//41 45//42
f  15//42 45//42 43//43
f  17//43 15//42 43//43
f  19//44 17//43 43//43
f  19//44 43//43 41//44
f  19//44 41//44 39//45
f  21//46 19//44 39//45
f  23//47 21//46 39//45
f  23//47 39//45 37//47
f  23//47 37//47 35//48
f  25//48 23//47 35//48
f  27//49 25//48 35//48
f  27//49 35//48 33//49
f  27//49 33//49 31//50
f  27//49 31//50 29//50

