# File produced by Open Asset Import Library (http://www.assimp.sf.net)
# (assimp v3.1.187496374)

mtllib main_ridge.obj.mtl

# 67 vertex positions
v  17.5 15.6329 40
v  16.4446 21.6183 40
v  13.4058 26.8817 40
v  3.03884 32.8671 40
v  8.75 30.7884 40
v  -3.03885 32.8671 40
v  -8.75 30.7884 40
v  -13.4058 26.8817 40
v  -16.4446 21.6183 40
v  -17.5 15.6329 40
v  17.5 -32.8671 40
v  -17.5 15.6329 40
v  -17.5 -32.8671 40
v  17.5 15.6329 24
v  16.4446 21.6183 24
v  13.4058 26.8817 24
v  16.4446 21.6183 8
v  13.4058 26.8817 8
v  17.5 -32.8671 -40
v  17.5 15.6329 -40
v  8.75 30.7884 24
v  8.75 30.7884 8
v  3.03884 32.8671 24
v  3.03884 32.8671 8
v  8.75 30.7884 -8
v  3.03884 32.8671 -8
v  -3.03885 32.8671 8
v  -3.03885 32.8671 -8
v  -3.03885 32.8671 24
v  -8.75 30.7884 8
v  -8.75 30.7884 -8
v  -3.03885 32.8671 -24
v  -8.75 30.7884 -24
v  -13.4058 26.8817 -8
v  -13.4058 26.8817 -24
v  -8.75 30.7884 24
v  -13.4058 26.8817 8
v  -16.4446 21.6183 -8
v  -16.4446 21.6183 -24
v  -13.4058 26.8817 -40
v  -16.4446 21.6183 -40
v  -17.5 15.6329 -24
v  -17.5 15.6329 -40
v  -16.4446 21.6183 8
v  -17.5 15.6329 -8
v  -13.4058 26.8817 24
v  -16.4446 21.6183 24
v  -17.5 15.6329 8
v  -17.5 15.6329 24
v  -8.75 30.7884 -40
v  -3.03885 32.8671 -40
v  3.03884 32.8671 -24
v  3.03884 32.8671 -40
v  8.75 30.7884 -24
v  8.75 30.7884 -40
v  13.4058 26.8817 -8
v  13.4058 26.8817 -24
v  16.4446 21.6183 -8
v  16.4446 21.6183 -24
v  13.4058 26.8817 -40
v  17.5 15.6329 8
v  17.5 15.6329 -8
v  17.5 15.6329 -24
v  16.4446 21.6183 -40
v  17.5 15.6329 -40
v  -17.5 -32.8671 -40
v  -17.5 15.6329 -40

# 0 UV coordinates

# 32 vertex normals
vn 0 0 1
vn 0.996195 0.087156 0
vn 0.984808 0.173648 0
vn 0.939693 0.34202 0
vn 0.918006 0.396567 0
vn 0.766044 0.642788 0
vn 1 0 0
vn 0.72701 0.686627 0
vn 0.5 0.866025 0
vn 0.448325 0.89387 0
vn 0.173648 0.984808 0
vn -0.173649 0.984808 0
vn 0.115565 0.9933 0
vn -0.5 0.866025 0
vn -0.766044 0.642788 0
vn -0.939693 0.34202 0
vn -0.72701 0.686627 0
vn -0.918006 0.396567 0
vn -0.984808 0.173648 0
vn -0.549952 0.835196 0
vn -0.80244 0.596733 0
vn -0.958142 0.286295 0
vn -0.231132 0.972922 0
vn -0.448325 0.893871 0
vn -0.115567 0.9933 0
vn 0.231132 0.972922 0
vn 0.549952 0.835196 0
vn 0.80244 0.596733 0
vn 0.958142 0.286295 0
vn 0 0 -1
vn 0 -1 0
vn -1 0 0

# Mesh 'Cylinder01' with 116 faces
g Cylinder01
usemtl $Material_0
f  1//1 2//1 3//1
f  4//1 1//1 3//1
f  5//1 4//1 3//1
f  4//1 6//1 7//1
f  4//1 7//1 1//1
f  7//1 8//1 9//1
f  7//1 9//1 1//1
f  9//1 10//1 1//1
f  11//1 1//1 12//1
f  12//1 13//1 11//1
f  1//2 14//3 15//4
f  15//4 2//5 1//2
f  2//5 15//4 16//6
f  17//4 15//4 14//3
f  15//4 17//4 18//6
f  18//6 16//6 15//4
f  1//2 11//7 19//7
f  19//7 20//7 1//2
f  16//6 3//8 2//5
f  3//8 16//6 21//9
f  16//6 18//6 22//9
f  22//9 21//9 16//6
f  21//9 5//10 3//8
f  5//10 21//9 23//11
f  21//9 22//9 24//11
f  24//11 23//11 21//9
f  25//9 22//9 18//6
f  22//9 25//9 26//11
f  26//11 24//11 22//9
f  23//11 24//11 27//12
f  24//11 26//11 28//12
f  28//12 27//12 24//11
f  23//11 4//13 5//10
f  4//13 23//11 29//12
f  27//12 29//12 23//11
f  29//12 27//12 30//14
f  27//12 28//12 31//14
f  31//14 30//14 27//12
f  32//12 28//12 26//11
f  28//12 32//12 33//14
f  33//14 31//14 28//12
f  30//14 31//14 34//15
f  31//14 33//14 35//15
f  35//15 34//15 31//14
f  30//14 36//14 29//12
f  36//14 30//14 37//15
f  34//15 37//15 30//14
f  37//15 34//15 38//16
f  34//15 35//15 39//16
f  39//16 38//16 34//15
f  40//17 35//15 33//14
f  35//15 40//17 41//18
f  41//18 39//16 35//15
f  38//16 39//16 42//19
f  39//16 41//18 43//19
f  43//19 42//19 39//16
f  38//16 44//16 37//15
f  44//16 38//16 45//19
f  42//19 45//19 38//16
f  46//15 37//15 44//16
f  44//16 47//16 46//15
f  47//16 44//16 48//19
f  45//19 48//19 44//16
f  7//20 36//14 46//15
f  46//15 8//21 7//20
f  8//21 46//15 47//16
f  37//15 46//15 36//14
f  47//16 9//22 8//21
f  9//22 47//16 49//19
f  48//19 49//19 47//16
f  49//19 10//19 9//22
f  6//23 29//12 36//14
f  36//14 7//20 6//23
f  29//12 6//23 4//13
f  33//14 50//24 40//17
f  50//24 33//14 32//12
f  32//12 51//25 50//24
f  26//11 52//11 32//12
f  51//25 32//12 52//11
f  52//11 53//26 51//25
f  25//9 54//9 52//11
f  52//11 26//11 25//9
f  53//26 52//11 54//9
f  54//9 55//27 53//26
f  56//6 57//6 54//9
f  54//9 25//9 56//6
f  55//27 54//9 57//6
f  18//6 56//6 25//9
f  17//4 58//4 56//6
f  56//6 18//6 17//4
f  57//6 56//6 58//4
f  58//4 59//4 57//6
f  60//28 57//6 59//4
f  57//6 60//28 55//27
f  61//3 62//3 58//4
f  58//4 17//4 61//3
f  59//4 58//4 62//3
f  14//3 61//3 17//4
f  62//3 63//3 59//4
f  64//29 59//4 63//3
f  59//4 64//29 60//28
f  63//3 65//3 64//29
f  43//30 41//30 40//30
f  51//30 43//30 40//30
f  50//30 51//30 40//30
f  64//30 65//30 43//30
f  55//30 64//30 43//30
f  51//30 55//30 43//30
f  51//30 53//30 55//30
f  55//30 60//30 64//30
f  19//31 11//31 13//31
f  13//31 66//31 19//31
f  20//30 19//30 66//30
f  66//30 67//30 20//30
f  67//32 66//32 13//32
f  13//32 12//32 67//32

