# File produced by Open Asset Import Library (http://www.assimp.sf.net)
# (assimp v3.1.187496374)

mtllib roofbase_right_end.obj.mtl

# 6 vertex positions
v  0 0 -7
v  0 0 0
v  0 -1 0
v  0 -1 -7
v  -8 0 0
v  -8 -1 0

# 0 UV coordinates

# 5 vertex normals
vn 1 0 0
vn 0 1 0
vn 0 0 1
vn 0 -1 -0
vn -0.658505 0 -0.752577

# Mesh 'Box01' with 8 faces
g Box01
usemtl $Material_0
f  1//1 2//1 3//1
f  3//1 4//1 1//1
f  5//2 2//2 1//2
f  6//3 3//3 2//3
f  2//3 5//3 6//3
f  4//4 3//4 6//4
f  5//5 1//5 4//5
f  4//5 6//5 5//5

